<svg xmlns="http://www.w3.org/2000/svg" version="1.1" xmlns:xlink="http://www.w3.org/1999/xlink" xmlns:svgjs="http://svgjs.dev/svgjs" viewBox="0 0 2400 800" opacity="0.72"><defs><linearGradient x1="50%" y1="0%" x2="50%" y2="100%" id="sssurf-grad"><stop stop-color="hsla(272, 99%, 54%, 1.00)" stop-opacity="1" offset="0%"></stop><stop stop-color="hsla(261, 74%, 93%, 1.00)" stop-opacity="1" offset="100%"></stop></linearGradient></defs><g fill="url(#sssurf-grad)" transform="matrix(1,0,0,1,0,-128.77679443359375)"><path d="M 0 307.0769062333894 Q 600 600.0408636193604 800 325.5297931957716 Q 1400 534.7263080407631 1600 303.5535930067378 Q 2200 557.0878814326658 2400 322.39988482182446 L 2400 800 L 0 800 L 0 327.7058674698835 Z" transform="matrix(1,0,0,1,0,59)" opacity="0.05"></path><path d="M 0 307.0769062333894 Q 600 600.0408636193604 800 325.5297931957716 Q 1400 534.7263080407631 1600 303.5535930067378 Q 2200 557.0878814326658 2400 322.39988482182446 L 2400 800 L 0 800 L 0 327.7058674698835 Z" transform="matrix(1,0,0,1,0,118)" opacity="0.29"></path><path d="M 0 307.0769062333894 Q 600 600.0408636193604 800 325.5297931957716 Q 1400 534.7263080407631 1600 303.5535930067378 Q 2200 557.0878814326658 2400 322.39988482182446 L 2400 800 L 0 800 L 0 327.7058674698835 Z" transform="matrix(1,0,0,1,0,177)" opacity="0.53"></path><path d="M 0 307.0769062333894 Q 600 600.0408636193604 800 325.5297931957716 Q 1400 534.7263080407631 1600 303.5535930067378 Q 2200 557.0878814326658 2400 322.39988482182446 L 2400 800 L 0 800 L 0 327.7058674698835 Z" transform="matrix(1,0,0,1,0,236)" opacity="0.76"></path><path d="M 0 307.0769062333894 Q 600 600.0408636193604 800 325.5297931957716 Q 1400 534.7263080407631 1600 303.5535930067378 Q 2200 557.0878814326658 2400 322.39988482182446 L 2400 800 L 0 800 L 0 327.7058674698835 Z" transform="matrix(1,0,0,1,0,295)" opacity="1.00"></path></g></svg>