<svg xmlns="http://www.w3.org/2000/svg" version="1.1" xmlns:xlink="http://www.w3.org/1999/xlink" xmlns:svgjs="http://svgjs.dev/svgjs" viewBox="0 0 2400 800" opacity="0.72"><defs><linearGradient x1="50%" y1="0%" x2="50%" y2="100%" id="sssurf-grad"><stop stop-color="hsla(272, 99%, 54%, 1.00)" stop-opacity="1" offset="0%"></stop><stop stop-color="hsla(261, 74%, 93%, 1.00)" stop-opacity="1" offset="100%"></stop></linearGradient></defs><g fill="url(#sssurf-grad)" transform="matrix(1,0,0,1,8.247314453125,192.52184867858887)"><path d="M-10,10C47.63888888888889,18.958333333333336,153.47222222222223,59.458333333333336,266.6666666666667,53C379.86111111111114,46.541666666666664,422.2222222222223,-23.083333333333332,533.3333333333334,-21C644.4444444444445,-18.916666666666668,688.8888888888889,66.75,800,63C911.1111111111111,59.25,955.5555555555557,-36.708333333333336,1066.6666666666667,-39C1177.7777777777778,-41.291666666666664,1222.2222222222224,47.416666666666664,1333.3333333333335,52C1444.4444444444446,56.583333333333336,1488.888888888889,-12.625,1600,-17C1711.111111111111,-21.375,1755.5555555555557,34.541666666666664,1866.6666666666667,31C1977.7777777777778,27.458333333333332,2022.2222222222224,-41.5,2133.3333333333335,-34C2244.4444444444443,-26.5,2292.3611111111113,-23.416666666666657,2400,67C2507.6388888888887,157.41666666666666,3254.1666666666665,226.45833333333331,2650,400C2045.8333333333335,573.5416666666667,156.25,795.8333333333334,-500,900" transform="matrix(1,0,0,1,0,59)" opacity="0.05"></path><path d="M-10,10C47.63888888888889,18.958333333333336,153.47222222222223,59.458333333333336,266.6666666666667,53C379.86111111111114,46.541666666666664,422.2222222222223,-23.083333333333332,533.3333333333334,-21C644.4444444444445,-18.916666666666668,688.8888888888889,66.75,800,63C911.1111111111111,59.25,955.5555555555557,-36.708333333333336,1066.6666666666667,-39C1177.7777777777778,-41.291666666666664,1222.2222222222224,47.416666666666664,1333.3333333333335,52C1444.4444444444446,56.583333333333336,1488.888888888889,-12.625,1600,-17C1711.111111111111,-21.375,1755.5555555555557,34.541666666666664,1866.6666666666667,31C1977.7777777777778,27.458333333333332,2022.2222222222224,-41.5,2133.3333333333335,-34C2244.4444444444443,-26.5,2292.3611111111113,-23.416666666666657,2400,67C2507.6388888888887,157.41666666666666,3254.1666666666665,226.45833333333331,2650,400C2045.8333333333335,573.5416666666667,156.25,795.8333333333334,-500,900" transform="matrix(1,0,0,1,0,118)" opacity="0.29"></path><path d="M-10,10C47.63888888888889,18.958333333333336,153.47222222222223,59.458333333333336,266.6666666666667,53C379.86111111111114,46.541666666666664,422.2222222222223,-23.083333333333332,533.3333333333334,-21C644.4444444444445,-18.916666666666668,688.8888888888889,66.75,800,63C911.1111111111111,59.25,955.5555555555557,-36.708333333333336,1066.6666666666667,-39C1177.7777777777778,-41.291666666666664,1222.2222222222224,47.416666666666664,1333.3333333333335,52C1444.4444444444446,56.583333333333336,1488.888888888889,-12.625,1600,-17C1711.111111111111,-21.375,1755.5555555555557,34.541666666666664,1866.6666666666667,31C1977.7777777777778,27.458333333333332,2022.2222222222224,-41.5,2133.3333333333335,-34C2244.4444444444443,-26.5,2292.3611111111113,-23.416666666666657,2400,67C2507.6388888888887,157.41666666666666,3254.1666666666665,226.45833333333331,2650,400C2045.8333333333335,573.5416666666667,156.25,795.8333333333334,-500,900" transform="matrix(1,0,0,1,0,177)" opacity="0.53"></path><path d="M-10,10C47.63888888888889,18.958333333333336,153.47222222222223,59.458333333333336,266.6666666666667,53C379.86111111111114,46.541666666666664,422.2222222222223,-23.083333333333332,533.3333333333334,-21C644.4444444444445,-18.916666666666668,688.8888888888889,66.75,800,63C911.1111111111111,59.25,955.5555555555557,-36.708333333333336,1066.6666666666667,-39C1177.7777777777778,-41.291666666666664,1222.2222222222224,47.416666666666664,1333.3333333333335,52C1444.4444444444446,56.583333333333336,1488.888888888889,-12.625,1600,-17C1711.111111111111,-21.375,1755.5555555555557,34.541666666666664,1866.6666666666667,31C1977.7777777777778,27.458333333333332,2022.2222222222224,-41.5,2133.3333333333335,-34C2244.4444444444443,-26.5,2292.3611111111113,-23.416666666666657,2400,67C2507.6388888888887,157.41666666666666,3254.1666666666665,226.45833333333331,2650,400C2045.8333333333335,573.5416666666667,156.25,795.8333333333334,-500,900" transform="matrix(1,0,0,1,0,236)" opacity="0.76"></path><path d="M-10,10C47.63888888888889,18.958333333333336,153.47222222222223,59.458333333333336,266.6666666666667,53C379.86111111111114,46.541666666666664,422.2222222222223,-23.083333333333332,533.3333333333334,-21C644.4444444444445,-18.916666666666668,688.8888888888889,66.75,800,63C911.1111111111111,59.25,955.5555555555557,-36.708333333333336,1066.6666666666667,-39C1177.7777777777778,-41.291666666666664,1222.2222222222224,47.416666666666664,1333.3333333333335,52C1444.4444444444446,56.583333333333336,1488.888888888889,-12.625,1600,-17C1711.111111111111,-21.375,1755.5555555555557,34.541666666666664,1866.6666666666667,31C1977.7777777777778,27.458333333333332,2022.2222222222224,-41.5,2133.3333333333335,-34C2244.4444444444443,-26.5,2292.3611111111113,-23.416666666666657,2400,67C2507.6388888888887,157.41666666666666,3254.1666666666665,226.45833333333331,2650,400C2045.8333333333335,573.5416666666667,156.25,795.8333333333334,-500,900" transform="matrix(1,0,0,1,0,295)" opacity="1.00"></path></g></svg>