<svg xmlns="http://www.w3.org/2000/svg" version="1.1" xmlns:xlink="http://www.w3.org/1999/xlink" xmlns:svgjs="http://svgjs.dev/svgjs" width="1500" height="1500" viewBox="0 0 1500 1500"><rect width="1500" height="1500" fill="#ffffff"></rect><g transform="matrix(0.6666666666666666,0,0,0.6666666666666666,250,187.66666666666674)"><svg viewBox="0 0 320 360" data-background-color="#6a2055" preserveAspectRatio="xMidYMid meet" height="1687" width="1500" xmlns="http://www.w3.org/2000/svg" xmlns:xlink="http://www.w3.org/1999/xlink"><g id="tight-bounds" transform="matrix(1,0,0,1,0,0)"><svg viewBox="0 0 320 360" height="360" width="320"><g><svg></svg></g><g><svg viewBox="0 0 320 360" height="360" width="320"><g><path d="M219.58 41.008c0.707 0 6.365 2.829 9.547 3.89-1.061 0.354-3.536-0.707-6.365-1.768 0.707 0 2.122 0.354 3.536 1.06-0.707-0.707-6.011-2.475-6.718-3.182M166.895 30.047c1.061-0.354 13.436 1.414 19.094 1.768 0.354-0.354-0.707-0.354-2.122-0.707 1.768-0.354 5.304 0.707 7.779 1.06-7.425 0.354-15.558-1.768-22.629-1.06-2.475 0-0.707-0.707-2.122-1.061M156.641 30.047c6.365 0 11.315 0 2.121 0.707-1.061-0.354-2.475-0.354-2.121-0.707M256.707 59.395c0.707 0 3.536 3.182 4.95 4.243-0.354 0.354-3.182-2.475-4.596-3.536 0.354 0.354 0 0-0.354-0.707M249.635 54.798c-2.829-2.475-3.889-2.475-4.243-3.889 2.475 1.414 4.243 2.829 4.243 3.889M204.022 32.522c0.354-0.354 1.061 0.354 2.829 0.707-2.122-0.354-1.768 0-1.061 0.707-2.475-0.354-3.182-0.707-2.475-1.414 1.414 0.707 1.768 0.354 0.707 0M103.602 36.765c0-0.354 1.414-1.061 2.475-1.414-1.061 0.707-0.707 1.061 1.061 0.353 0 0.354-2.122 1.061-3.536 1.768 0.707-0.354 1.414-1.414 0-0.707M211.094 28.986c-1.061 0.354-4.95-1.768-8.84-2.475-2.122-0.707 8.486 1.768 8.84 2.475M2.475 203.66c2.122 8.84 0.707 8.486 0 0M2.829 150.621c0.354-1.414 0.707-5.304 1.06-4.95-1.061 8.486-2.829 12.376-3.182 18.74 1.061-5.657-0.354 3.182-0.707 5.304 0.354 2.829 0.354-1.768 1.061-1.06 0.707 1.061-1.414 15.912-0.707 7.779-0.707 7.425 0 15.558 1.414 17.679-1.768 11.315 7.072 36.773 8.84 42.077 0.354 0.354 0-1.768 0.707-0.353 0.707 4.597 3.889 7.779 4.95 12.729 1.061 1.414 5.304 9.193 6.011 10.962 1.414 2.829 2.122 2.475 3.536 5.303 4.243 8.133 10.961 15.912 17.326 23.337 20.508 24.044 51.978 43.845 86.984 50.918 35.006 7.425 71.779 2.122 100.419-11.669 1.768-1.061 1.414-1.414 3.536-2.122 9.901-3.182 21.923-13.436 28.641-17.326 3.182-3.536 11.669-9.547 12.73-13.082 6.011-4.95 12.022-13.083 15.204-18.387 1.768-2.829 3.182-2.829 3.889-4.597-0.354 0 5.657-7.425 7.426-11.668-0.707 0-1.768 2.122-1.768 0 12.729-24.398 19.801-57.282 15.911-79.912 0.707 27.934-6.365 59.05-19.801 78.851-6.011 12.729-18.387 26.519-29.701 36.42-1.768 1.768-3.536 3.889-5.658 5.304-6.718 5.657-14.144 10.254-21.922 14.497-18.387 10.254-38.895 19.094-62.94 19.447 41.37-3.536 78.497-24.398 99.006-49.856-15.558 15.204-22.276 21.215-39.602 30.055-1.414 2.475-13.083 7.425-20.862 9.547 4.597-2.122 14.144-5.657 17.326-8.486-25.812 12.376-54.453 19.448-81.326 15.558 10.254 0 24.751 0.354 38.541-2.121 2.122-0.707 3.182-1.414 5.658-1.768 26.873-6.011 52.685-19.094 71.072-37.481-10.608 9.547-26.519 20.862-36.774 24.398 9.547-5.304 26.873-15.558 32.53-23.337-11.315 11.315-32.53 22.63-45.966 27.58-2.122 0.354 1.414-1.414-2.122 0-4.243 1.061-2.475 1.061-3.536 1.768-16.265 4.597-35.006 8.486-50.563 7.072-2.829-0.354-3.889-1.061-6.365-1.061-2.829-0.354-5.304-0.354-8.486-0.354-12.376-1.414-25.812-6.365-35.713-10.607-5.304-2.475-10.608-4.243-15.912-7.426-4.243-2.475-7.779-5.304-11.314-8.132-13.436-9.901-24.751-19.801-35.36-33.945-19.094-26.519-28.994-59.757-27.58-92.641 1.414-32.884 14.497-65.061 35.359-88.752-1.061 1.061 1.414-2.475 3.536-4.596 0 0.707-0.354 1.768 2.122-0.707 2.122-2.475-0.707-0.707 0.353-2.122 21.923-24.044 60.111-43.492 99.36-44.199 1.414-1.061 3.889-2.475 6.718-1.768 0 0.354-1.768 0.354-1.768 0.354 3.889-0.354 7.425-0.354 9.193 0.353 0.354-0.354-1.414-0.707 0-0.707 2.475 0.707 3.182 0 4.597 0.707-1.061 0-2.122 0-2.829 0.354 8.84 0 14.497 2.122 23.337 2.829-4.597-1.061-5.657-1.061-9.193-2.122 3.889 0.707 5.657 1.414 7.425 1.061-0.707 0-0.354-1.061 0.354-0.707 7.072 1.768 7.779 2.475 15.204 4.95 0.707-0.707-3.182-1.061-4.243-2.122 7.072 2.475 13.436 4.243 17.68 7.072-1.414-1.061-5.657-2.475-8.84-3.889-0.354 0.354 1.061 0.707 1.414 1.414-3.536-1.768-8.486-3.536-13.436-4.243 4.243 1.061 7.072 2.475 8.84 3.182-3.889-0.707-8.84-3.182-14.498-4.243 9.193 2.829 26.519 9.193 37.127 14.851-3.889-2.475-8.486-4.243-10.961-5.657 2.122 0.354 4.597 1.768 4.597 1.06 2.475 1.061 5.657 3.536 7.425 3.89-3.182-2.122-9.547-5.304-11.668-6.365 26.519 12.022 50.21 32.177 65.414 57.989 1.414 2.475 3.536 8.133 5.304 8.84-0.354-1.768-1.768-2.829-3.182-5.657 0.707 0 0.707-1.061 0-2.122-1.414-1.768 0 1.414-1.415-0.354-6.365-11.669-14.144-21.923-26.165-33.237 6.718 6.365 1.768 1.768 0.353-0.354 9.193 8.133 19.801 21.923 24.398 28.995-0.707-1.061-1.061-1.768-0.707-1.768 8.486 14.497 13.79 27.58 19.094 46.32 0.354 0.354 0-1.414 0.707-0.353 3.536 14.851 4.597 27.227 4.243 38.541 2.829-19.094-3.536-48.796-14.851-72.133-1.414-2.829-1.414-0.707-2.829-3.889 0-1.061-1.061-3.182-1.768-4.597-14.144-23.337-31.47-39.956-51.978-53.038 1.414 0.707 4.243 2.829 4.244 2.475-38.188-25.105-82.387-28.641-118.807-20.862-2.475 1.061-3.536 2.122-6.365 3.536 5.304-1.768 8.486-2.122 13.437-3.183 1.061-1.061-4.597 0.354-2.122-0.707 0.354 0.354 4.95-0.707 6.011-0.353 0 0.354-1.414 0.707-1.768 1.06 11.669-2.475 23.691-2.829 33.945-2.121-6.011 0.354-16.972-0.707-20.508 1.061 3.536-0.354 8.486-0.707 11.668-0.354-4.243 0-12.022 0.354-15.558 0.707-0.354-0.354 5.657-1.061 1.768-1.06-1.768 0.354-4.597 0.354-5.657 1.414-30.409 2.829-60.111 18.74-80.973 37.481-4.243 3.536-9.193 7.425-12.375 11.314-7.779 8.84-12.729 17.68-18.387 25.459 3.536-7.425 11.315-18.74 20.508-28.287 9.193-9.547 19.094-17.68 24.398-21.923 0 1.414 8.486-5.304 11.669-7.425-2.122 1.768 1.414-0.707 2.121-0.354 11.315-6.718 20.508-9.193 30.763-13.083-2.475 0.707-4.597 1.414-4.951 1.061 2.475-0.707 3.889-1.414 3.536-1.768-9.901 2.829-25.459 9.547-37.834 16.972 22.276-15.204 50.564-24.398 78.497-24.751 27.934-0.707 55.16 6.365 76.729 17.68 14.497 6.365 28.287 18.033 39.249 29.348 3.182 2.829 0.707-0.707 5.304 4.243-1.414-0.707-2.475-1.414-0.707 0.707 2.829 3.182-0.707-2.475 3.889 3.182-0.354 0-1.768-1.768-1.768-1.061 12.376 10.961 21.923 30.762 27.58 43.846-1.414-5.304-4.95-12.729-7.779-18.033 8.486 15.558 11.315 24.751 14.851 38.541 1.414 1.061-0.707-4.95 0.707-2.121 0.354 2.122 0.707 8.84 2.122 9.9-1.061-6.718-2.829-14.851-4.243-16.265 1.061 0.707-1.768-8.133-3.536-10.254-0.707-5.657-5.657-15.558-9.901-22.984-15.204-29.702-42.431-54.099-72.839-67.536 0-0.707-1.768-1.414-2.476-2.121-30.055-12.729-66.122-16.265-100.773-8.133-35.006 8.486-67.889 28.641-91.227 57.636 1.061-3.536 9.901-10.254 10.255-13.083-10.254 10.961-21.215 25.459-28.641 41.016-7.779 15.558-12.022 31.47-13.79 43.138" fill="#000000" fill-rule="nonzero" stroke="none" stroke-width="1" stroke-linecap="butt" stroke-linejoin="miter" stroke-miterlimit="10" stroke-dasharray="" stroke-dashoffset="0" font-family="none" font-weight="none" font-size="none" text-anchor="none" style="mix-blend-mode: normal" data-fill-palette-color="tertiary"></path></g><g transform="matrix(1,0,0,1,48,92.20502795002596)"><svg viewBox="0 0 224 175.58994409994807" height="175.58994409994807" width="224"><g><svg viewBox="0 0 224 175.58994409994807" height="175.58994409994807" width="224"><g><svg viewBox="0 0 224 175.58994409994807" height="175.58994409994807" width="224"><g><svg viewBox="0 0 224 175.58994409994807" height="175.58994409994807" width="224"><g id="textblocktransform"><svg viewBox="0 0 224 175.58994409994807" height="175.58994409994807" width="224" id="textblock"><g><svg viewBox="0 0 224 175.58994409994807" height="175.58994409994807" width="224"><g transform="matrix(1,0,0,1,0,0)"><svg width="224" viewBox="63.69846301320206 -36.41494987755779 125.91153698679793 93.86494987755778" height="175.58994409994807" data-palette-color="#f4e2de"><svg></svg><svg></svg><g class="wordmark-text-0" data-fill-palette-color="primary" id="text-0"><path d="M76.37-16.65v0c-0.167 1.167-0.25 2.3-0.25 3.4 0 1.1 0.083 2.133 0.25 3.1 0.167 0.967 0.41 1.84 0.73 2.62 0.313 0.787 0.72 1.447 1.22 1.98v0c0.633 0.667 1.46 1.14 2.48 1.42 1.013 0.287 2.153 0.347 3.42 0.18v0c0.333-1.3 0.727-2.55 1.18-3.75 0.447-1.2 0.88-2.367 1.3-3.5 0.413-1.133 0.77-2.25 1.07-3.35 0.3-1.1 0.45-2.183 0.45-3.25v0c0-0.1 0.017-0.15 0.05-0.15v0c0.033 0 0.077 0.05 0.13 0.15 0.047 0.1 0.07 0.167 0.07 0.2v0c0.4 1.233 0.527 2.473 0.38 3.72-0.153 1.253-0.437 2.53-0.85 3.83-0.42 1.3-0.897 2.623-1.43 3.97-0.533 1.353-0.967 2.747-1.3 4.18v0c-0.167 0.633-0.267 1.377-0.3 2.23-0.033 0.847 0.027 1.713 0.18 2.6 0.147 0.88 0.413 1.753 0.8 2.62 0.38 0.867 0.92 1.633 1.62 2.3v0c0.033 0.067 0.083 0.133 0.15 0.2v0l0.05 0.05c0 0-0.05 0-0.15 0v0c-0.033 0-0.067-0.017-0.1-0.05v0c-0.9-0.6-1.64-1.283-2.22-2.05-0.587-0.767-1.02-1.557-1.3-2.37-0.287-0.82-0.453-1.637-0.5-2.45-0.053-0.82-0.013-1.563 0.12-2.23v0c-1 0.233-1.99 0.267-2.97 0.1-0.987-0.167-1.897-0.467-2.73-0.9v0c-0.167-0.067-0.34-0.2-0.52-0.4-0.187-0.2-0.263-0.317-0.23-0.35v0c0 0 0.26 0.04 0.78 0.12 0.513 0.087 1.097 0.17 1.75 0.25 0.647 0.087 1.297 0.157 1.95 0.21 0.647 0.047 1.12 0.053 1.42 0.02v0c0.1-0.033 0.21-0.06 0.33-0.08 0.113-0.013 0.253-0.053 0.42-0.12v0c0-0.167 0.017-0.327 0.05-0.48 0.033-0.147 0.083-0.303 0.15-0.47v0c-1.167 0.267-2.3 0.3-3.4 0.1-1.1-0.2-2.083-0.667-2.95-1.4v0c-0.7-0.6-1.257-1.327-1.67-2.18-0.42-0.847-0.737-1.77-0.95-2.77-0.22-1-0.347-2.043-0.38-3.13-0.033-1.08 0-2.153 0.1-3.22v0c0.133-1.7 0.467-3.417 1-5.15 0.533-1.733 1.243-3.343 2.13-4.83 0.88-1.48 1.93-2.763 3.15-3.85 1.213-1.08 2.587-1.837 4.12-2.27v0c0.7-0.2 1.45-0.283 2.25-0.25 0.8 0.033 1.55 0.183 2.25 0.45 0.7 0.267 1.31 0.64 1.83 1.12 0.513 0.487 0.837 1.097 0.97 1.83v0c0.167 0.8 0.1 1.573-0.2 2.32-0.3 0.753-0.717 1.403-1.25 1.95-0.533 0.553-1.133 0.947-1.8 1.18-0.667 0.233-1.3 0.217-1.9-0.05v0c-0.233-0.067-0.283-0.133-0.15-0.2v0c0.067-0.033 0.117-0.033 0.15 0 0.033 0.033 0.083 0.05 0.15 0.05v0c0.4 0.067 0.85-0.017 1.35-0.25 0.5-0.233 0.96-0.567 1.38-1 0.413-0.433 0.747-0.943 1-1.53 0.247-0.58 0.32-1.17 0.22-1.77v0c-0.1-0.5-0.307-0.933-0.62-1.3-0.32-0.367-0.73-0.667-1.23-0.9-0.5-0.233-1.057-0.383-1.67-0.45-0.62-0.067-1.28-0.033-1.98 0.1v0c-1.233 0.233-2.383 0.79-3.45 1.67-1.067 0.887-2.017 1.97-2.85 3.25-0.833 1.287-1.533 2.713-2.1 4.28-0.567 1.567-0.95 3.133-1.15 4.7zM80.32-0.15v0c0.467 0.067 0.733 0.117 0.8 0.15 0.067 0.033-0.183 0.05-0.75 0.05v0c-0.933 0-1.873-0.15-2.82-0.45-0.953-0.3-1.847-0.727-2.68-1.28-0.833-0.547-1.583-1.22-2.25-2.02-0.667-0.8-1.167-1.683-1.5-2.65v0c-0.733-2.1-1.167-4.11-1.3-6.03-0.133-1.913-0.05-3.837 0.25-5.77v0c0.167-1.033 0.433-2.217 0.8-3.55 0.367-1.333 0.877-2.7 1.53-4.1 0.647-1.4 1.453-2.783 2.42-4.15 0.967-1.367 2.133-2.617 3.5-3.75v0c1.433-1.2 3.033-1.993 4.8-2.38 1.767-0.38 3.45-0.437 5.05-0.17 1.6 0.267 3.017 0.843 4.25 1.73 1.233 0.88 2.05 1.97 2.45 3.27v0c0.033 0.067 0.083 0.2 0.15 0.4 0.067 0.2 0.067 0.317 0 0.35v0c-0.067 0.033-0.133-0.033-0.2-0.2-0.067-0.167-0.183-0.35-0.35-0.55v0c-1.4-1.9-2.983-3.1-4.75-3.6-1.767-0.5-3.507-0.55-5.22-0.15-1.72 0.4-3.337 1.157-4.85 2.27-1.52 1.12-2.73 2.363-3.63 3.73v0c-1.567 2.3-2.733 4.807-3.5 7.52-0.767 2.72-1.133 5.48-1.1 8.28v0c0.033 1.367 0.183 2.75 0.45 4.15 0.267 1.4 0.75 2.767 1.45 4.1v0c0.667 1.3 1.66 2.383 2.98 3.25 1.313 0.867 2.653 1.383 4.02 1.55zM73.22-19.1v0c0.233-1.733 0.633-3.443 1.2-5.13 0.567-1.68 1.327-3.203 2.28-4.57 0.947-1.367 2.12-2.55 3.52-3.55 1.4-1 3.05-1.7 4.95-2.1v0c0.633-0.133 1.357-0.193 2.17-0.18 0.82 0.02 1.64 0.17 2.46 0.45 0.813 0.287 1.58 0.713 2.3 1.28 0.713 0.567 1.303 1.35 1.77 2.35v0c0.433 0.967 0.593 1.923 0.48 2.87-0.12 0.953-0.387 1.803-0.8 2.55-0.42 0.753-0.937 1.38-1.55 1.88-0.62 0.5-1.23 0.783-1.83 0.85v0c-0.1 0.033-0.223 0.04-0.37 0.02-0.153-0.013-0.23-0.053-0.23-0.12v0c0-0.067 0.017-0.093 0.05-0.08 0.033 0.02 0.217-0.037 0.55-0.17v0c0.233-0.1 0.51-0.277 0.83-0.53 0.313-0.247 0.613-0.57 0.9-0.97 0.28-0.4 0.537-0.867 0.77-1.4 0.233-0.533 0.383-1.117 0.45-1.75v0c0.067-0.667-0.017-1.3-0.25-1.9-0.233-0.6-0.573-1.143-1.02-1.63-0.453-0.48-0.98-0.887-1.58-1.22-0.6-0.333-1.217-0.55-1.85-0.65v0c-1.967-0.3-3.75-0.04-5.35 0.78-1.6 0.813-3.017 1.927-4.25 3.34-1.233 1.42-2.267 3.003-3.1 4.75-0.833 1.753-1.467 3.413-1.9 4.98v0c0 0.033-0.033 0.15-0.1 0.35-0.067 0.2-0.133 0.417-0.2 0.65-0.067 0.233-0.123 0.443-0.17 0.63-0.053 0.18-0.097 0.27-0.13 0.27v0c-0.033 0-0.057-0.09-0.07-0.27-0.02-0.187-0.02-0.407 0-0.66 0.013-0.247 0.027-0.48 0.04-0.7 0.02-0.213 0.03-0.353 0.03-0.42zM90.37-1.45v0c-0.2 0.733-0.49 1.66-0.87 2.78-0.387 1.113-0.73 2.137-1.03 3.07v0c-0.1 0.267-0.183 0.4-0.25 0.4v0c-0.133 0-0.207-0.057-0.22-0.17-0.02-0.12-0.03-0.213-0.03-0.28v0c-0.1-0.9-0.117-1.757-0.05-2.57 0.067-0.82 0.2-1.63 0.4-2.43 0.2-0.8 0.443-1.6 0.73-2.4 0.28-0.8 0.57-1.65 0.87-2.55v0c0.4-1.167 0.767-2.31 1.1-3.43 0.333-1.113 0.533-2.37 0.6-3.77v0c0-0.167 0.01-0.26 0.03-0.28 0.013-0.013 0.053-0.02 0.12-0.02v0l0.15 0.3c0.333 0.7 0.477 1.567 0.43 2.6-0.053 1.033-0.197 2.1-0.43 3.2-0.233 1.1-0.507 2.15-0.82 3.15-0.32 1-0.563 1.8-0.73 2.4zM90.52-9.4v0c-0.467 1.267-0.983 2.583-1.55 3.95-0.567 1.367-1.15 2.683-1.75 3.95v0c-0.033 0.033-0.09 0.14-0.17 0.32-0.087 0.187-0.18 0.263-0.28 0.23v0c-0.067-0.033-0.1-0.143-0.1-0.33 0-0.18 0-0.32 0-0.42v0c0-0.3 0.033-0.677 0.1-1.13 0.067-0.447 0.15-0.893 0.25-1.34 0.1-0.453 0.207-0.897 0.32-1.33 0.12-0.433 0.247-0.8 0.38-1.1v0c0.067-0.2 0.217-0.74 0.45-1.62 0.233-0.887 0.467-1.857 0.7-2.91 0.233-1.047 0.417-2.07 0.55-3.07 0.133-1 0.133-1.75 0-2.25v0c-0.067-0.167-0.067-0.283 0-0.35v0c0.067 0 0.127 0.04 0.18 0.12 0.047 0.087 0.103 0.163 0.17 0.23v0c0.3 0.467 0.533 1.007 0.7 1.62 0.167 0.62 0.277 1.253 0.33 1.9 0.047 0.653 0.047 1.287 0 1.9-0.053 0.62-0.147 1.163-0.28 1.63zM87.57 5.35v0c0.4 0.833 0.883 1.617 1.45 2.35v0c0.1 0.1 0.117 0.183 0.05 0.25v0c-0.1 0.067-0.2 0.067-0.3 0v0c-0.067-0.033-0.117-0.067-0.15-0.1v0c-0.467-0.267-0.85-0.533-1.15-0.8-0.3-0.267-0.6-0.783-0.9-1.55v0c-0.1-0.267-0.19-0.607-0.27-1.02-0.087-0.42-0.147-0.82-0.18-1.2-0.033-0.387-0.043-0.713-0.03-0.98 0.02-0.267 0.08-0.383 0.18-0.35v0c0.167 0 0.31 0.2 0.43 0.6 0.113 0.4 0.187 0.65 0.22 0.75v0c0.133 0.367 0.233 0.717 0.3 1.05 0.067 0.333 0.183 0.667 0.35 1zM111.07-15.8v0c-0.4 1.233-0.873 2.417-1.42 3.55-0.553 1.133-1.13 2.267-1.73 3.4v0c-0.067 0.067-0.167 0.223-0.3 0.47-0.133 0.253-0.25 0.347-0.35 0.28v0c-0.067 0-0.093-0.1-0.08-0.3 0.02-0.2 0.03-0.35 0.03-0.45v0c0.033-0.267 0.107-0.65 0.22-1.15 0.12-0.5 0.257-1.027 0.41-1.58 0.147-0.547 0.293-1.08 0.44-1.6 0.153-0.513 0.28-0.92 0.38-1.22v0c0.567-1.8 0.933-3.4 1.1-4.8 0.167-1.4 0.067-2.583-0.3-3.55v0c-0.067-0.167-0.067-0.25 0-0.25v0c0.067 0 0.133 0.033 0.2 0.1 0.067 0.067 0.117 0.117 0.15 0.15v0c0.367 0.4 0.667 0.907 0.9 1.52 0.233 0.62 0.4 1.253 0.5 1.9 0.1 0.653 0.133 1.297 0.1 1.93-0.033 0.633-0.117 1.167-0.25 1.6zM112.42-19.4v0c0.433 0.667 0.633 1.5 0.6 2.5-0.033 1-0.157 2.033-0.37 3.1-0.22 1.067-0.487 2.083-0.8 3.05-0.32 0.967-0.563 1.733-0.73 2.3v0c-0.333 1.1-0.733 2.223-1.2 3.37-0.467 1.153-0.883 2.147-1.25 2.98v0c-0.133 0.3-0.233 0.433-0.3 0.4v0c-0.1-0.033-0.16-0.11-0.18-0.23-0.013-0.113-0.02-0.203-0.02-0.27v0c0-1.8 0.257-3.533 0.77-5.2 0.52-1.667 1.08-3.35 1.68-5.05v0c0.367-1.1 0.7-2.193 1-3.28 0.3-1.08 0.45-2.27 0.45-3.57v0c0-0.233 0.033-0.35 0.1-0.35v0c0.033 0 0.067 0.023 0.1 0.07 0.033 0.053 0.083 0.113 0.15 0.18zM102.42-3.7v0c0.067 0.1-0.05 0.25-0.35 0.45-0.3 0.2-0.5 0.317-0.6 0.35v0c-1.467 0.533-2.61 0.55-3.43 0.05-0.813-0.5-1.397-1.25-1.75-2.25-0.347-1-0.52-2.11-0.52-3.33 0-1.213 0.067-2.303 0.2-3.27v0c0.1-0.833 0.29-1.76 0.57-2.78 0.287-1.013 0.63-2.013 1.03-3 0.4-0.98 0.86-1.897 1.38-2.75 0.513-0.847 1.07-1.503 1.67-1.97v0c0.067-0.033 0.14-0.083 0.22-0.15 0.087-0.067 0.163-0.1 0.23-0.1v0c0.1 0.033 0.05 0.217-0.15 0.55v0c-0.2 0.333-0.44 0.8-0.72 1.4-0.287 0.6-0.58 1.29-0.88 2.07-0.3 0.787-0.59 1.613-0.87 2.48-0.287 0.867-0.513 1.733-0.68 2.6v0c-0.167 0.867-0.283 1.7-0.35 2.5-0.067 0.8-0.1 1.517-0.1 2.15 0 0.633 0.017 1.167 0.05 1.6 0.033 0.433 0.067 0.717 0.1 0.85v0c0.233 1.033 0.673 1.79 1.32 2.27 0.653 0.487 1.53 0.63 2.63 0.43v0c0.033 0 0.2-0.033 0.5-0.1 0.3-0.067 0.467-0.083 0.5-0.05zM108.87 0.15v0c0.133 0.133 0.2 0.233 0.2 0.3v0c0 0.067-0.073 0.083-0.22 0.05-0.153-0.033-0.263-0.067-0.33-0.1v0c-0.267-0.133-0.6-0.327-1-0.58-0.4-0.247-0.7-0.687-0.9-1.32v0c-0.1-0.267-0.167-0.593-0.2-0.98-0.033-0.38-0.05-0.737-0.05-1.07 0-0.333 0.033-0.61 0.1-0.83 0.067-0.213 0.15-0.303 0.25-0.27v0c0.067 0.033 0.14 0.183 0.22 0.45 0.087 0.267 0.163 0.55 0.23 0.85v0c0.067 0.367 0.15 0.707 0.25 1.02 0.1 0.32 0.217 0.647 0.35 0.98v0c0.167 0.367 0.333 0.657 0.5 0.87 0.167 0.22 0.367 0.43 0.6 0.63zM104.27-2.6v0c-0.367 0.567-0.923 1.14-1.67 1.72-0.753 0.587-1.763 0.88-3.03 0.88v0c-1 0-1.857-0.267-2.57-0.8-0.72-0.533-1.303-1.2-1.75-2-0.453-0.8-0.773-1.677-0.96-2.63-0.18-0.947-0.27-1.853-0.27-2.72v0c0.033-1.067 0.123-2.133 0.27-3.2 0.153-1.067 0.357-2.067 0.61-3 0.247-0.933 0.53-1.767 0.85-2.5 0.313-0.733 0.637-1.333 0.97-1.8v0c0.067-0.033 0.143-0.11 0.23-0.23 0.08-0.113 0.153-0.137 0.22-0.07v0c0.033 0.033 0.027 0.107-0.02 0.22-0.053 0.12-0.097 0.213-0.13 0.28v0c-0.3 1-0.59 2.057-0.87 3.17-0.287 1.12-0.513 2.247-0.68 3.38-0.167 1.133-0.25 2.25-0.25 3.35 0 1.1 0.1 2.117 0.3 3.05v0c0.133 0.633 0.377 1.217 0.73 1.75 0.347 0.533 0.73 0.983 1.15 1.35 0.413 0.367 0.863 0.633 1.35 0.8 0.48 0.167 0.953 0.217 1.42 0.15v0c0.967-0.133 1.7-0.407 2.2-0.82 0.5-0.42 0.857-0.923 1.07-1.51 0.22-0.58 0.357-1.213 0.41-1.9 0.047-0.68 0.12-1.37 0.22-2.07v0c-0.167 0.467-0.49 0.923-0.97 1.37-0.487 0.453-1.007 0.803-1.56 1.05-0.547 0.253-1.077 0.363-1.59 0.33-0.52-0.033-0.913-0.333-1.18-0.9v0c-0.333-0.733-0.517-1.533-0.55-2.4-0.033-0.867-0.017-1.817 0.05-2.85v0c0.067-1.033 0.217-2.1 0.45-3.2 0.233-1.1 0.55-2.16 0.95-3.18 0.4-1.013 0.877-1.97 1.43-2.87 0.547-0.9 1.17-1.7 1.87-2.4v0l0.2-0.2c0.1-0.1 0.2-0.15 0.3-0.15v0c0 0-0.067 0.167-0.2 0.5v0c-0.967 1.8-1.783 3.66-2.45 5.58-0.667 1.913-1.067 3.853-1.2 5.82v0c-0.167 2.167-0.057 3.583 0.33 4.25 0.38 0.667 0.853 0.857 1.42 0.57 0.567-0.28 1.173-0.897 1.82-1.85 0.653-0.947 1.18-1.97 1.58-3.07v0c0.367-1 0.757-2.033 1.17-3.1 0.42-1.067 0.807-2.143 1.16-3.23 0.347-1.08 0.613-2.137 0.8-3.17 0.18-1.033 0.22-2 0.12-2.9v0c0-0.167 0.033-0.25 0.1-0.25v0c0.033 0 0.05 0.017 0.05 0.05v0c0 0.067 0.017 0.1 0.05 0.1v0c0.033 0.033 0.05 0.067 0.05 0.1v0c0.533 1.133 0.777 2.283 0.73 3.45-0.053 1.167-0.253 2.35-0.6 3.55-0.353 1.2-0.77 2.423-1.25 3.67-0.487 1.253-0.897 2.513-1.23 3.78v0c-0.2 0.8-0.35 1.64-0.45 2.52-0.1 0.887-0.117 1.763-0.05 2.63 0.067 0.867 0.25 1.69 0.55 2.47 0.3 0.787 0.733 1.447 1.3 1.98v0c0.067 0.067 0.1 0.117 0.1 0.15v0c0 0.067-0.04 0.093-0.12 0.08-0.087-0.02-0.163-0.047-0.23-0.08v0c-0.633-0.233-1.183-0.617-1.65-1.15-0.467-0.533-0.833-1.167-1.1-1.9zM120.82-16.65v0c-0.267 1.133-0.643 2.323-1.13 3.57-0.48 1.253-1.02 2.413-1.62 3.48v0c0 0.067-0.043 0.173-0.13 0.32-0.08 0.153-0.187 0.23-0.32 0.23v0c-0.067 0-0.11-0.1-0.13-0.3-0.013-0.2-0.003-0.333 0.03-0.4v0c0-0.533 0.067-1.243 0.2-2.13 0.133-0.88 0.3-1.603 0.5-2.17v0c0.067-0.2 0.173-0.683 0.32-1.45 0.153-0.767 0.287-1.623 0.4-2.57 0.12-0.953 0.19-1.873 0.21-2.76 0.013-0.88-0.097-1.537-0.33-1.97v0-0.2c0.133-0.1 0.283-0.067 0.45 0.1v0c0.433 0.367 0.773 0.817 1.02 1.35 0.253 0.533 0.437 1.09 0.55 1.67 0.12 0.587 0.17 1.163 0.15 1.73-0.013 0.567-0.07 1.067-0.17 1.5zM122.77-16.85v0c0.367-0.467 0.717-0.8 1.05-1 0.333-0.2 0.667-0.367 1-0.5v0c0.033 0 0.117-0.017 0.25-0.05 0.133-0.033 0.233 0 0.3 0.1v0c0.067 0.1 0.05 0.217-0.05 0.35-0.1 0.133-0.183 0.233-0.25 0.3v0c-0.233 0.233-0.493 0.49-0.78 0.77-0.28 0.287-0.537 0.563-0.77 0.83v0c-0.333 0.367-0.6 0.79-0.8 1.27-0.2 0.487-0.35 0.98-0.45 1.48v0c0.567-0.6 1.11-1.167 1.63-1.7 0.513-0.533 1.07-1.033 1.67-1.5v0c0.767-0.567 1.433-1.3 2-2.2 0.567-0.9 0.967-2.217 1.2-3.95v0c0.067-0.167 0.15-0.267 0.25-0.3 0.1-0.033 0.15 0.083 0.15 0.35v0c0.1 1.933-0.1 3.467-0.6 4.6-0.5 1.133-1.25 2.083-2.25 2.85v0c-0.533 0.4-1.067 0.833-1.6 1.3-0.533 0.467-1.043 0.983-1.53 1.55-0.48 0.567-0.92 1.233-1.32 2-0.4 0.767-0.75 1.65-1.05 2.65v0c-0.233 0.767-0.467 1.49-0.7 2.17-0.233 0.687-0.483 1.347-0.75 1.98v0c-0.067 0.233-0.167 0.35-0.3 0.35v0c-0.1-0.033-0.15-0.2-0.15-0.5v0c-0.167-1.6-0.06-3.193 0.32-4.78 0.387-1.58 0.847-3.22 1.38-4.92v0c0.233-0.833 0.507-1.667 0.82-2.5 0.32-0.833 0.463-1.783 0.43-2.85v0c0-0.367 0.15-0.75 0.45-1.15 0.3-0.4 0.667-0.777 1.1-1.13 0.433-0.347 0.883-0.647 1.35-0.9 0.467-0.247 0.867-0.42 1.2-0.52v0c0.3-0.1 0.45-0.083 0.45 0.05 0 0.133-0.1 0.3-0.3 0.5v0c-0.7 0.633-1.41 1.383-2.13 2.25-0.713 0.867-1.12 1.783-1.22 2.75zM118.42-0.05v0c-0.033 0.033-0.06 0.04-0.08 0.02-0.013-0.013-0.103-0.07-0.27-0.17v0c-1-0.733-1.783-1.533-2.35-2.4-0.567-0.867-0.977-1.76-1.23-2.68-0.247-0.913-0.353-1.83-0.32-2.75 0.033-0.913 0.15-1.803 0.35-2.67v0c0.267-1.167 0.59-2.327 0.97-3.48 0.387-1.147 0.747-2.263 1.08-3.35 0.333-1.08 0.583-2.147 0.75-3.2 0.167-1.047 0.167-2.053 0-3.02v0c0-0.067 0.05-0.117 0.15-0.15v0c0.033 0 0.067 0.023 0.1 0.07 0.033 0.053 0.067 0.097 0.1 0.13v0c0.633 1.067 0.95 2.157 0.95 3.27 0 1.12-0.15 2.253-0.45 3.4-0.3 1.153-0.677 2.32-1.13 3.5-0.447 1.187-0.803 2.38-1.07 3.58v0c-0.333 1.533-0.357 3.167-0.07 4.9 0.28 1.733 1.053 3.283 2.32 4.65v0c0.067 0.1 0.133 0.167 0.2 0.2 0.067 0.033 0.067 0.083 0 0.15zM119.92 0v0c-0.067 0-0.133-0.017-0.2-0.05v0l-0.2-0.1c-0.467-0.3-0.883-0.627-1.25-0.98-0.367-0.347-0.683-0.853-0.95-1.52v0c-0.1-0.233-0.183-0.543-0.25-0.93-0.067-0.38-0.11-0.737-0.13-1.07-0.013-0.333 0.003-0.617 0.05-0.85 0.053-0.233 0.147-0.333 0.28-0.3v0c0.1 0 0.207 0.133 0.32 0.4 0.12 0.267 0.213 0.533 0.28 0.8v0c0.067 0.367 0.14 0.717 0.22 1.05 0.087 0.333 0.197 0.633 0.33 0.9v0c0.367 0.833 0.85 1.633 1.45 2.4v0c0.067 0.167 0.083 0.25 0.05 0.25zM128.07-22.45v0c0 0.7-0.2 1.317-0.6 1.85-0.4 0.533-0.883 0.983-1.45 1.35v0c-0.1 0.067-0.167 0.057-0.2-0.03-0.033-0.08-0.05-0.137-0.05-0.17v0c0-0.2 0.083-0.443 0.25-0.73 0.167-0.28 0.357-0.58 0.57-0.9 0.22-0.313 0.43-0.637 0.63-0.97 0.2-0.333 0.333-0.633 0.4-0.9v0c0.1-0.167 0.2-0.167 0.3 0 0.1 0.167 0.15 0.333 0.15 0.5zM148.22-17.6v0c-0.267 1.333-0.717 2.667-1.35 4-0.633 1.333-1.233 2.583-1.8 3.75v0c-0.033 0.067-0.107 0.183-0.22 0.35-0.12 0.167-0.213 0.25-0.28 0.25v0c-0.1-0.033-0.15-0.143-0.15-0.33 0-0.18 0-0.303 0-0.37v0c0.033-0.3 0.093-0.66 0.18-1.08 0.08-0.413 0.153-0.847 0.22-1.3 0.067-0.447 0.143-0.88 0.23-1.3 0.08-0.413 0.17-0.787 0.27-1.12v0c0.3-1.133 0.55-2.11 0.75-2.93 0.2-0.813 0.35-1.553 0.45-2.22 0.1-0.667 0.157-1.3 0.17-1.9 0.02-0.6-0.02-1.25-0.12-1.95v0c-0.033-0.267-0.017-0.433 0.05-0.5v0c0.067-0.033 0.15 0 0.25 0.1 0.1 0.1 0.183 0.2 0.25 0.3v0c0.567 0.9 0.95 1.89 1.15 2.97 0.2 1.087 0.183 2.18-0.05 3.28zM149.22-21.25l0.2 0.3c0.433 0.633 0.65 1.467 0.65 2.5 0 1.033-0.1 2.09-0.3 3.17-0.2 1.087-0.45 2.13-0.75 3.13-0.3 1-0.517 1.8-0.65 2.4v0c-0.267 1.167-0.633 2.333-1.1 3.5-0.467 1.167-0.867 2.2-1.2 3.1v0c-0.033 0.1-0.083 0.207-0.15 0.32-0.067 0.12-0.133 0.18-0.2 0.18v0c-0.067 0-0.1-0.067-0.1-0.2 0-0.133 0-0.25 0-0.35v0c-0.1-1.833 0.1-3.627 0.6-5.38 0.5-1.747 1.033-3.52 1.6-5.32v0c0.333-1.1 0.65-2.227 0.95-3.38 0.3-1.147 0.433-2.403 0.4-3.77v0c0-0.133 0.017-0.2 0.05-0.2zM144.72-21.8v0c-2.033 0.833-3.757 2.023-5.17 3.57-1.42 1.553-2.513 3.297-3.28 5.23v0c-0.333 0.867-0.583 1.64-0.75 2.32-0.167 0.687-0.3 1.43-0.4 2.23v0c-0.033 0.167 0.017 0.333 0.15 0.5 0.133 0.167 0.267 0.167 0.4 0v0c0.6-0.733 1.367-1.667 2.3-2.8 0.933-1.133 1.867-2.333 2.8-3.6 0.933-1.267 1.777-2.55 2.53-3.85 0.747-1.3 1.22-2.5 1.42-3.6zM141.37-4.85v0c-0.5 0.7-0.983 1.35-1.45 1.95-0.467 0.6-0.983 1.123-1.55 1.57-0.567 0.453-1.2 0.813-1.9 1.08-0.7 0.267-1.5 0.417-2.4 0.45v0c-1.5 0.067-2.64-0.317-3.42-1.15-0.787-0.833-1.33-1.85-1.63-3.05-0.3-1.2-0.41-2.443-0.33-3.73 0.087-1.28 0.263-2.337 0.53-3.17v0c0.367-1.167 0.807-2.277 1.32-3.33 0.52-1.047 1.07-1.993 1.65-2.84 0.587-0.853 1.187-1.59 1.8-2.21 0.62-0.613 1.23-1.087 1.83-1.42v0c0.033 0 0.107-0.033 0.22-0.1 0.12-0.067 0.18-0.05 0.18 0.05v0c0.033 0 0.017 0.05-0.05 0.15-0.067 0.1-0.133 0.183-0.2 0.25v0c-1.733 1.8-3.11 3.833-4.13 6.1-1.013 2.267-1.587 4.6-1.72 7v0c-0.033 0.6-0.01 1.25 0.07 1.95 0.087 0.7 0.253 1.357 0.5 1.97 0.253 0.62 0.613 1.137 1.08 1.55 0.467 0.42 1.1 0.63 1.9 0.63v0c0.633 0 1.217-0.11 1.75-0.33 0.533-0.213 1.033-0.497 1.5-0.85 0.467-0.347 0.89-0.73 1.27-1.15 0.387-0.413 0.73-0.803 1.03-1.17v0c0.667-0.833 1.283-1.7 1.85-2.6v0c0-0.667 0.04-1.317 0.12-1.95 0.087-0.633 0.213-1.267 0.38-1.9v0c0.1-0.467 0.193-0.843 0.28-1.13 0.08-0.28 0.163-0.547 0.25-0.8 0.08-0.247 0.163-0.513 0.25-0.8 0.08-0.28 0.203-0.653 0.37-1.12v0c-0.533 0.933-1.057 1.807-1.57 2.62-0.52 0.82-1.073 1.603-1.66 2.35-0.58 0.753-1.18 1.487-1.8 2.2-0.613 0.72-1.287 1.447-2.02 2.18v0c-0.567 0.567-1.033 0.75-1.4 0.55-0.367-0.2-0.583-0.667-0.65-1.4v0c-0.067-1.133-0.01-2.233 0.17-3.3 0.187-1.067 0.513-2.183 0.98-3.35v0c0.433-1.067 0.977-2.1 1.63-3.1 0.647-1 1.397-1.91 2.25-2.73 0.847-0.813 1.787-1.513 2.82-2.1 1.033-0.58 2.133-0.97 3.3-1.17v0c0.067-0.367 0.123-0.683 0.17-0.95 0.053-0.267 0.097-0.533 0.13-0.8v0c0.067-0.367 0.1-0.55 0.1-0.55v0c0.067-0.033 0.143 0 0.23 0.1 0.08 0.1 0.153 0.233 0.22 0.4v0c0.4 1.1 0.533 2.2 0.4 3.3-0.133 1.1-0.373 2.217-0.72 3.35-0.353 1.133-0.763 2.29-1.23 3.47-0.467 1.187-0.85 2.38-1.15 3.58v0c-0.4 1.7-0.507 3.457-0.32 5.27 0.18 1.82 0.887 3.463 2.12 4.93v0c0.1 0.133 0.15 0.2 0.15 0.2v0c-0.033 0.033-0.133 0-0.3-0.1v0c-0.967-0.6-1.69-1.327-2.17-2.18-0.487-0.847-0.83-1.737-1.03-2.67zM143.12-22.55v0c0.067 0.067 0.06 0.117-0.02 0.15-0.087 0.033-0.263 0.083-0.53 0.15v0c-0.433 0.133-0.96 0.383-1.58 0.75-0.613 0.367-1.26 0.833-1.94 1.4-0.687 0.567-1.363 1.223-2.03 1.97-0.667 0.753-1.25 1.563-1.75 2.43v0c-0.5 0.9-0.927 1.783-1.28 2.65-0.347 0.867-0.627 1.657-0.84 2.37-0.22 0.72-0.38 1.337-0.48 1.85-0.1 0.52-0.15 0.88-0.15 1.08v0c0 0.5 0 1.023 0 1.57 0 0.553 0.067 1.047 0.2 1.48 0.133 0.433 0.367 0.767 0.7 1 0.333 0.233 0.833 0.3 1.5 0.2v0c0.033 0 0.117-0.027 0.25-0.08 0.133-0.047 0.267-0.097 0.4-0.15 0.133-0.047 0.257-0.087 0.37-0.12 0.12-0.033 0.197-0.05 0.23-0.05v0c0.033 0.067 0.01 0.15-0.07 0.25-0.087 0.1-0.197 0.207-0.33 0.32-0.133 0.12-0.257 0.23-0.37 0.33-0.12 0.1-0.197 0.167-0.23 0.2v0c-0.833 0.5-1.533 0.65-2.1 0.45-0.567-0.2-1.01-0.577-1.33-1.13-0.313-0.547-0.53-1.197-0.65-1.95-0.113-0.747-0.153-1.42-0.12-2.02v0c0.067-1.167 0.25-2.327 0.55-3.48 0.3-1.147 0.683-2.303 1.15-3.47v0c0.367-0.9 0.917-1.827 1.65-2.78 0.733-0.947 1.557-1.82 2.47-2.62 0.92-0.8 1.88-1.46 2.88-1.98 1-0.513 1.967-0.787 2.9-0.82v0c0.333 0 0.517 0.017 0.55 0.05zM146.07-0.1v0c0.067 0.1 0.083 0.167 0.05 0.2v0c-0.1 0-0.233-0.033-0.4-0.1v0c-0.1-0.067-0.367-0.267-0.8-0.6-0.433-0.333-0.75-0.867-0.95-1.6v0c-0.067-0.267-0.123-0.61-0.17-1.03-0.053-0.413-0.08-0.803-0.08-1.17 0-0.367 0.027-0.683 0.08-0.95 0.047-0.267 0.12-0.4 0.22-0.4v0c0.1 0 0.21 0.2 0.33 0.6 0.113 0.4 0.187 0.65 0.22 0.75v0c0.1 0.467 0.193 0.873 0.28 1.22 0.08 0.353 0.17 0.68 0.27 0.98v0c0.133 0.367 0.31 0.783 0.53 1.25 0.213 0.467 0.353 0.75 0.42 0.85zM181.12-3.85v0c-0.067 0.067-0.15 0.033-0.25-0.1-0.1-0.133-0.183-0.25-0.25-0.35v0c-1.167-2.1-2.043-4.36-2.63-6.78-0.58-2.413-1.153-4.837-1.72-7.27v0c-0.367-1.567-0.75-3.15-1.15-4.75-0.4-1.6-1.033-3.2-1.9-4.8v0c-0.1-0.2-0.1-0.333 0-0.4v0c0.067-0.033 0.117-0.027 0.15 0.02 0.033 0.053 0.1 0.113 0.2 0.18v0c0.533 0.367 1.033 0.933 1.5 1.7 0.467 0.767 0.9 1.617 1.3 2.55v0l0.55-0.65c0.567-0.667 1.1-1.35 1.6-2.05 0.5-0.7 1.017-1.4 1.55-2.1v0c0.067-0.067 0.15-0.167 0.25-0.3 0.1-0.133 0.167-0.167 0.2-0.1v0c0.033 0.133 0.05 0.283 0.05 0.45v0c0 0.067-0.017 0.117-0.05 0.15v0c-0.267 0.567-0.59 1.217-0.97 1.95-0.387 0.733-1.08 1.683-2.08 2.85v0l-0.75 0.85c0.067 0.1 0.127 0.207 0.18 0.32 0.047 0.12 0.103 0.263 0.17 0.43v0c0.767-1 1.49-1.967 2.17-2.9 0.687-0.933 1.313-1.833 1.88-2.7v0c0.067-0.067 0.117-0.127 0.15-0.18 0.033-0.047 0.067-0.103 0.1-0.17v0c0.033-0.067 0.067-0.117 0.1-0.15v0c0.2 0.067 0.25 0.183 0.15 0.35v0c-0.5 1.233-1.107 2.423-1.82 3.57-0.72 1.153-1.497 2.313-2.33 3.48v0c0.367 1.3 0.707 2.583 1.02 3.85 0.32 1.267 0.58 2.283 0.78 3.05v0l0.05 0.3c0.267-0.433 0.527-0.85 0.78-1.25 0.247-0.4 0.47-0.817 0.67-1.25v0c0.067-0.067 0.117-0.127 0.15-0.18 0.033-0.047 0.083-0.07 0.15-0.07v0c0.033-0.067 0.043-0.027 0.03 0.12-0.02 0.153-0.03 0.247-0.03 0.28v0c-0.167 0.567-0.377 1.133-0.63 1.7-0.247 0.567-0.52 1.15-0.82 1.75v0c0.067 0.133 0.117 0.273 0.15 0.42 0.033 0.153 0.067 0.297 0.1 0.43v0c0.267-0.467 0.527-0.91 0.78-1.33 0.247-0.413 0.42-0.753 0.52-1.02v0c0.033-0.067 0.067-0.133 0.1-0.2 0.033-0.067 0.067-0.133 0.1-0.2v0c0.033-0.067 0.067-0.117 0.1-0.15v0c0.1 0 0.15 0.057 0.15 0.17 0 0.12 0 0.247 0 0.38v0c0 0.533-0.117 1.167-0.35 1.9-0.233 0.733-0.583 1.483-1.05 2.25v0c0.167 0.967 0.333 1.9 0.5 2.8 0.167 0.9 0.3 1.733 0.4 2.5v0c0.033 0.133 0.05 0.273 0.05 0.42 0 0.153-0.017 0.23-0.05 0.23zM176.12-10.7v0c-0.033 0-0.107-0.117-0.22-0.35-0.12-0.233-0.18-0.383-0.18-0.45v0c-0.2-0.333-0.407-0.777-0.62-1.33-0.22-0.547-0.43-1.113-0.63-1.7-0.2-0.58-0.377-1.153-0.53-1.72-0.147-0.567-0.27-1.067-0.37-1.5v0c-0.067-0.3-0.26-1.027-0.58-2.18-0.313-1.147-0.693-2.403-1.14-3.77-0.453-1.367-0.947-2.65-1.48-3.85-0.533-1.2-1.033-2-1.5-2.4v0c-0.067-0.067-0.083-0.133-0.05-0.2 0.033-0.067 0.05-0.133 0.05-0.2v0c0-0.067 0.05-0.067 0.15 0 0.1 0.067 0.183 0.117 0.25 0.15v0c0.567 0.2 1.123 0.567 1.67 1.1 0.553 0.533 1.063 1.14 1.53 1.82 0.467 0.687 0.873 1.397 1.22 2.13 0.353 0.733 0.613 1.417 0.78 2.05v0c0.467 1.767 0.843 3.64 1.13 5.62 0.28 1.987 0.503 3.88 0.67 5.68v0c0.033 0.067 0.043 0.257 0.03 0.57-0.02 0.32-0.08 0.497-0.18 0.53zM183.47-0.25v0c-0.1 0.033-0.233 0.05-0.4 0.05v0h-0.15c-0.633-0.133-1.167-0.283-1.6-0.45-0.433-0.167-0.917-0.617-1.45-1.35v0c-0.267-0.233-0.54-0.577-0.82-1.03-0.287-0.447-0.547-0.887-0.78-1.32-0.233-0.433-0.41-0.817-0.53-1.15-0.113-0.333-0.103-0.533 0.03-0.6v0c0.033-0.033 0.117-0.01 0.25 0.07 0.133 0.087 0.267 0.203 0.4 0.35 0.133 0.153 0.26 0.313 0.38 0.48 0.113 0.167 0.203 0.283 0.27 0.35v0c0.267 0.4 0.557 0.773 0.87 1.12 0.32 0.353 0.613 0.68 0.88 0.98v0c0.433 0.433 0.823 0.833 1.17 1.2 0.353 0.367 0.797 0.683 1.33 0.95v0c0.233 0.1 0.283 0.217 0.15 0.35zM171.82-13.5v0c-0.6 0.733-1.15 1.45-1.65 2.15-0.5 0.7-0.933 1.383-1.3 2.05v0c-0.6 0.967-0.967 1.823-1.1 2.57-0.133 0.753-0.167 1.13-0.1 1.13v0c0 0.1 0.107 0.183 0.32 0.25 0.22 0.067 0.523 0.09 0.91 0.07 0.38-0.013 0.81-0.087 1.29-0.22 0.487-0.133 0.98-0.35 1.48-0.65v0c0.367-0.2 0.693-0.393 0.98-0.58 0.28-0.18 0.587-0.403 0.92-0.67v0c-0.233-0.567-0.433-1.127-0.6-1.68-0.167-0.547-0.333-1.103-0.5-1.67v0c-0.133-0.467-0.257-0.927-0.37-1.38-0.12-0.447-0.213-0.903-0.28-1.37zM176.47-2.65v0c-0.933 0.8-2.083 1.467-3.45 2-1.367 0.533-2.967 0.967-4.8 1.3v0c-1.067 0.2-2.06 0.227-2.98 0.08-0.913-0.153-1.693-0.463-2.34-0.93-0.653-0.467-1.153-1.083-1.5-1.85-0.353-0.767-0.513-1.667-0.48-2.7v0c0.033-1.633 0.26-2.983 0.68-4.05 0.413-1.067 0.803-1.95 1.17-2.65v0c0.933-1.767 2.083-3.39 3.45-4.87 1.367-1.487 2.733-2.813 4.1-3.98v0c-0.4-1.9-0.927-3.643-1.58-5.23-0.647-1.58-1.253-3.12-1.82-4.62v0c-0.033-0.133-0.033-0.217 0-0.25v0c0.067-0.1 0.193-0.11 0.38-0.03 0.18 0.087 0.303 0.163 0.37 0.23v0c0.933 1.1 1.707 2.407 2.32 3.92 0.62 1.52 1.163 3.13 1.63 4.83 0.467 1.7 0.893 3.467 1.28 5.3 0.38 1.833 0.82 3.633 1.32 5.4v0c0.3 1.1 0.693 2.207 1.18 3.32 0.48 1.12 1.037 2.17 1.67 3.15 0.633 0.987 1.35 1.853 2.15 2.6 0.8 0.753 1.683 1.313 2.65 1.68v0h0.35-0.3c-1.167 0-2.2-0.25-3.1-0.75-0.9-0.5-1.683-1.133-2.35-1.9zM175.42-4.05v0c-0.367 0.367-0.767 0.683-1.2 0.95-0.433 0.267-0.85 0.517-1.25 0.75v0c-0.6 0.367-1.343 0.673-2.23 0.92-0.88 0.253-1.77 0.397-2.67 0.43-0.9 0.033-1.74-0.093-2.52-0.38-0.787-0.28-1.38-0.787-1.78-1.52v0c-0.4-0.733-0.583-1.483-0.55-2.25 0.033-0.767 0.19-1.517 0.47-2.25 0.287-0.733 0.657-1.443 1.11-2.13 0.447-0.68 0.87-1.287 1.27-1.82v0c0.167-0.167 0.373-0.41 0.62-0.73 0.253-0.313 0.447-0.437 0.58-0.37v0c0 0.033-0.083 0.233-0.25 0.6-0.167 0.367-0.3 0.617-0.4 0.75v0c-1.133 1.767-1.733 3.317-1.8 4.65-0.067 1.333 0.283 2.317 1.05 2.95 0.767 0.633 1.883 0.823 3.35 0.57 1.467-0.247 3.15-1.07 5.05-2.47v0l0.2-0.15c-0.1-0.133-0.183-0.317-0.25-0.55v0c-0.367 0.3-0.757 0.573-1.17 0.82-0.42 0.253-0.863 0.513-1.33 0.78v0c-0.567 0.3-1.143 0.517-1.73 0.65-0.58 0.133-1.127 0.2-1.64 0.2-0.52 0-0.963-0.077-1.33-0.23-0.367-0.147-0.617-0.387-0.75-0.72v0c-0.3-0.733-0.257-1.65 0.13-2.75 0.38-1.1 0.92-2.183 1.62-3.25v0c0.467-0.767 0.977-1.55 1.53-2.35 0.547-0.8 1.153-1.583 1.82-2.35v0c-0.133-0.6-0.267-1.217-0.4-1.85-0.133-0.633-0.25-1.233-0.35-1.8v0c-1.1 1.2-2.25 2.533-3.45 4-1.2 1.467-2.207 2.983-3.02 4.55-0.82 1.567-1.33 3.123-1.53 4.67-0.2 1.553 0.167 2.98 1.1 4.28v0c0.533 0.467 1.177 0.79 1.93 0.97 0.747 0.187 1.537 0.263 2.37 0.23 0.833-0.033 1.667-0.167 2.5-0.4 0.833-0.233 1.583-0.517 2.25-0.85v0c0.567-0.267 1.093-0.577 1.58-0.93 0.48-0.347 0.97-0.703 1.47-1.07v0c-0.1-0.067-0.173-0.15-0.22-0.25-0.053-0.1-0.113-0.2-0.18-0.3z" fill="#000000" fill-rule="nonzero" stroke="none" stroke-width="1" stroke-linecap="butt" stroke-linejoin="miter" stroke-miterlimit="10" stroke-dasharray="" stroke-dashoffset="0" font-family="none" font-weight="none" font-size="none" text-anchor="none" style="mix-blend-mode: normal" data-fill-palette-color="primary" opacity="1"></path><path d="M70.31 32.7v0c-0.167 1.167-0.25 2.3-0.25 3.4 0 1.1 0.083 2.133 0.25 3.1 0.167 0.967 0.41 1.84 0.73 2.62 0.313 0.787 0.72 1.447 1.22 1.98v0c0.633 0.667 1.46 1.14 2.48 1.42 1.013 0.287 2.153 0.347 3.42 0.18v0c0.333-1.3 0.727-2.55 1.18-3.75 0.447-1.2 0.88-2.367 1.3-3.5 0.413-1.133 0.77-2.25 1.07-3.35 0.3-1.1 0.45-2.183 0.45-3.25v0c0-0.1 0.017-0.15 0.05-0.15v0c0.033 0 0.077 0.05 0.13 0.15 0.047 0.1 0.07 0.167 0.07 0.2v0c0.4 1.233 0.527 2.473 0.38 3.72-0.153 1.253-0.437 2.53-0.85 3.83-0.42 1.3-0.897 2.623-1.43 3.97-0.533 1.353-0.967 2.747-1.3 4.18v0c-0.167 0.633-0.267 1.377-0.3 2.23-0.033 0.847 0.027 1.713 0.18 2.6 0.147 0.88 0.413 1.753 0.8 2.62 0.38 0.867 0.92 1.633 1.62 2.3v0c0.033 0.067 0.083 0.133 0.15 0.2v0l0.05 0.05c0 0-0.05 0-0.15 0v0c-0.033 0-0.067-0.017-0.1-0.05v0c-0.9-0.6-1.64-1.283-2.22-2.05-0.587-0.767-1.02-1.557-1.3-2.37-0.287-0.82-0.453-1.637-0.5-2.45-0.053-0.82-0.013-1.563 0.12-2.23v0c-1 0.233-1.99 0.267-2.97 0.1-0.987-0.167-1.897-0.467-2.73-0.9v0c-0.167-0.067-0.34-0.2-0.52-0.4-0.187-0.2-0.263-0.317-0.23-0.35v0c0 0 0.26 0.04 0.78 0.12 0.513 0.087 1.097 0.17 1.75 0.25 0.647 0.087 1.297 0.157 1.95 0.21 0.647 0.047 1.12 0.053 1.42 0.02v0c0.1-0.033 0.21-0.06 0.33-0.08 0.113-0.013 0.253-0.053 0.42-0.12v0c0-0.167 0.017-0.327 0.05-0.48 0.033-0.147 0.083-0.303 0.15-0.47v0c-1.167 0.267-2.3 0.3-3.4 0.1-1.1-0.2-2.083-0.667-2.95-1.4v0c-0.7-0.6-1.257-1.327-1.67-2.18-0.42-0.847-0.737-1.77-0.95-2.77-0.22-1-0.347-2.043-0.38-3.13-0.033-1.08 0-2.153 0.1-3.22v0c0.133-1.7 0.467-3.417 1-5.15 0.533-1.733 1.243-3.343 2.13-4.83 0.88-1.48 1.93-2.763 3.15-3.85 1.213-1.08 2.587-1.837 4.12-2.27v0c0.7-0.2 1.45-0.283 2.25-0.25 0.8 0.033 1.55 0.183 2.25 0.45 0.7 0.267 1.31 0.64 1.83 1.12 0.513 0.487 0.837 1.097 0.97 1.83v0c0.167 0.8 0.1 1.573-0.2 2.32-0.3 0.753-0.717 1.403-1.25 1.95-0.533 0.553-1.133 0.947-1.8 1.18-0.667 0.233-1.3 0.217-1.9-0.05v0c-0.233-0.067-0.283-0.133-0.15-0.2v0c0.067-0.033 0.117-0.033 0.15 0 0.033 0.033 0.083 0.05 0.15 0.05v0c0.4 0.067 0.85-0.017 1.35-0.25 0.5-0.233 0.96-0.567 1.38-1 0.413-0.433 0.747-0.943 1-1.53 0.247-0.58 0.32-1.17 0.22-1.77v0c-0.1-0.5-0.307-0.933-0.62-1.3-0.32-0.367-0.73-0.667-1.23-0.9-0.5-0.233-1.057-0.383-1.67-0.45-0.62-0.067-1.28-0.033-1.98 0.1v0c-1.233 0.233-2.383 0.79-3.45 1.67-1.067 0.887-2.017 1.97-2.85 3.25-0.833 1.287-1.533 2.713-2.1 4.28-0.567 1.567-0.95 3.133-1.15 4.7zM74.26 49.2v0c0.467 0.067 0.733 0.117 0.8 0.15 0.067 0.033-0.183 0.05-0.75 0.05v0c-0.933 0-1.873-0.15-2.82-0.45-0.953-0.3-1.847-0.727-2.68-1.28-0.833-0.547-1.583-1.22-2.25-2.02-0.667-0.8-1.167-1.683-1.5-2.65v0c-0.733-2.1-1.167-4.11-1.3-6.03-0.133-1.913-0.05-3.837 0.25-5.77v0c0.167-1.033 0.433-2.217 0.8-3.55 0.367-1.333 0.877-2.7 1.53-4.1 0.647-1.4 1.453-2.783 2.42-4.15 0.967-1.367 2.133-2.617 3.5-3.75v0c1.433-1.2 3.033-1.993 4.8-2.38 1.767-0.38 3.45-0.437 5.05-0.17 1.6 0.267 3.017 0.843 4.25 1.73 1.233 0.88 2.05 1.97 2.45 3.27v0c0.033 0.067 0.083 0.2 0.15 0.4 0.067 0.2 0.067 0.317 0 0.35v0c-0.067 0.033-0.133-0.033-0.2-0.2-0.067-0.167-0.183-0.35-0.35-0.55v0c-1.4-1.9-2.983-3.1-4.75-3.6-1.767-0.5-3.507-0.55-5.22-0.15-1.72 0.4-3.337 1.157-4.85 2.27-1.52 1.12-2.73 2.363-3.63 3.73v0c-1.567 2.3-2.733 4.807-3.5 7.52-0.767 2.72-1.133 5.48-1.1 8.28v0c0.033 1.367 0.183 2.75 0.45 4.15 0.267 1.4 0.75 2.767 1.45 4.1v0c0.667 1.3 1.66 2.383 2.98 3.25 1.313 0.867 2.653 1.383 4.02 1.55zM67.16 30.25v0c0.233-1.733 0.633-3.443 1.2-5.13 0.567-1.68 1.327-3.203 2.28-4.57 0.947-1.367 2.12-2.55 3.52-3.55 1.4-1 3.05-1.7 4.95-2.1v0c0.633-0.133 1.357-0.193 2.17-0.18 0.82 0.02 1.64 0.17 2.46 0.45 0.813 0.287 1.58 0.713 2.3 1.28 0.713 0.567 1.303 1.35 1.77 2.35v0c0.433 0.967 0.593 1.923 0.48 2.87-0.12 0.953-0.387 1.803-0.8 2.55-0.42 0.753-0.937 1.38-1.55 1.88-0.62 0.5-1.23 0.783-1.83 0.85v0c-0.1 0.033-0.223 0.04-0.37 0.02-0.153-0.013-0.23-0.053-0.23-0.12v0c0-0.067 0.017-0.093 0.05-0.08 0.033 0.02 0.217-0.037 0.55-0.17v0c0.233-0.1 0.51-0.277 0.83-0.53 0.313-0.247 0.613-0.57 0.9-0.97 0.28-0.4 0.537-0.867 0.77-1.4 0.233-0.533 0.383-1.117 0.45-1.75v0c0.067-0.667-0.017-1.3-0.25-1.9-0.233-0.6-0.573-1.143-1.02-1.63-0.453-0.48-0.98-0.887-1.58-1.22-0.6-0.333-1.217-0.55-1.85-0.65v0c-1.967-0.3-3.75-0.04-5.35 0.78-1.6 0.813-3.017 1.927-4.25 3.34-1.233 1.42-2.267 3.003-3.1 4.75-0.833 1.753-1.467 3.413-1.9 4.98v0c0 0.033-0.033 0.15-0.1 0.35-0.067 0.2-0.133 0.417-0.2 0.65-0.067 0.233-0.123 0.443-0.17 0.63-0.053 0.18-0.097 0.27-0.13 0.27v0c-0.033 0-0.057-0.09-0.07-0.27-0.02-0.187-0.02-0.407 0-0.66 0.013-0.247 0.027-0.48 0.04-0.7 0.02-0.213 0.03-0.353 0.03-0.42zM84.31 47.9v0c-0.2 0.733-0.49 1.66-0.87 2.78-0.387 1.113-0.73 2.137-1.03 3.07v0c-0.1 0.267-0.183 0.4-0.25 0.4v0c-0.133 0-0.207-0.057-0.22-0.17-0.02-0.12-0.03-0.213-0.03-0.28v0c-0.1-0.9-0.117-1.757-0.05-2.57 0.067-0.82 0.2-1.63 0.4-2.43 0.2-0.8 0.443-1.6 0.73-2.4 0.28-0.8 0.57-1.65 0.87-2.55v0c0.4-1.167 0.767-2.31 1.1-3.43 0.333-1.113 0.533-2.37 0.6-3.77v0c0-0.167 0.01-0.26 0.03-0.28 0.013-0.013 0.053-0.02 0.12-0.02v0l0.15 0.3c0.333 0.7 0.477 1.567 0.43 2.6-0.053 1.033-0.197 2.1-0.43 3.2-0.233 1.1-0.507 2.15-0.82 3.15-0.32 1-0.563 1.8-0.73 2.4zM84.46 39.95v0c-0.467 1.267-0.983 2.583-1.55 3.95-0.567 1.367-1.15 2.683-1.75 3.95v0c-0.033 0.033-0.09 0.14-0.17 0.32-0.087 0.187-0.18 0.263-0.28 0.23v0c-0.067-0.033-0.1-0.143-0.1-0.33 0-0.18 0-0.32 0-0.42v0c0-0.3 0.033-0.677 0.1-1.13 0.067-0.447 0.15-0.893 0.25-1.34 0.1-0.453 0.207-0.897 0.32-1.33 0.12-0.433 0.247-0.8 0.38-1.1v0c0.067-0.2 0.217-0.74 0.45-1.62 0.233-0.887 0.467-1.857 0.7-2.91 0.233-1.047 0.417-2.07 0.55-3.07 0.133-1 0.133-1.75 0-2.25v0c-0.067-0.167-0.067-0.283 0-0.35v0c0.067 0 0.127 0.04 0.18 0.12 0.047 0.087 0.103 0.163 0.17 0.23v0c0.3 0.467 0.533 1.007 0.7 1.62 0.167 0.62 0.277 1.253 0.33 1.9 0.047 0.653 0.047 1.287 0 1.9-0.053 0.62-0.147 1.163-0.28 1.63zM81.51 54.7v0c0.4 0.833 0.883 1.617 1.45 2.35v0c0.1 0.1 0.117 0.183 0.05 0.25v0c-0.1 0.067-0.2 0.067-0.3 0v0c-0.067-0.033-0.117-0.067-0.15-0.1v0c-0.467-0.267-0.85-0.533-1.15-0.8-0.3-0.267-0.6-0.783-0.9-1.55v0c-0.1-0.267-0.19-0.607-0.27-1.02-0.087-0.42-0.147-0.82-0.18-1.2-0.033-0.387-0.043-0.713-0.03-0.98 0.02-0.267 0.08-0.383 0.18-0.35v0c0.167 0 0.31 0.2 0.43 0.6 0.113 0.4 0.187 0.65 0.22 0.75v0c0.133 0.367 0.233 0.717 0.3 1.05 0.067 0.333 0.183 0.667 0.35 1zM105.01 33.55v0c-0.4 1.233-0.873 2.417-1.42 3.55-0.553 1.133-1.13 2.267-1.73 3.4v0c-0.067 0.067-0.167 0.223-0.3 0.47-0.133 0.253-0.25 0.347-0.35 0.28v0c-0.067 0-0.093-0.1-0.08-0.3 0.02-0.2 0.03-0.35 0.03-0.45v0c0.033-0.267 0.107-0.65 0.22-1.15 0.12-0.5 0.257-1.027 0.41-1.58 0.147-0.547 0.293-1.08 0.44-1.6 0.153-0.513 0.28-0.92 0.38-1.22v0c0.567-1.8 0.933-3.4 1.1-4.8 0.167-1.4 0.067-2.583-0.3-3.55v0c-0.067-0.167-0.067-0.25 0-0.25v0c0.067 0 0.133 0.033 0.2 0.1 0.067 0.067 0.117 0.117 0.15 0.15v0c0.367 0.4 0.667 0.907 0.9 1.52 0.233 0.62 0.4 1.253 0.5 1.9 0.1 0.653 0.133 1.297 0.1 1.93-0.033 0.633-0.117 1.167-0.25 1.6zM106.36 29.95v0c0.433 0.667 0.633 1.5 0.6 2.5-0.033 1-0.157 2.033-0.37 3.1-0.22 1.067-0.487 2.083-0.8 3.05-0.32 0.967-0.563 1.733-0.73 2.3v0c-0.333 1.1-0.733 2.223-1.2 3.37-0.467 1.153-0.883 2.147-1.25 2.98v0c-0.133 0.3-0.233 0.433-0.3 0.4v0c-0.1-0.033-0.16-0.11-0.18-0.23-0.013-0.113-0.02-0.203-0.02-0.27v0c0-1.8 0.257-3.533 0.77-5.2 0.52-1.667 1.08-3.35 1.68-5.05v0c0.367-1.1 0.7-2.193 1-3.28 0.3-1.08 0.45-2.27 0.45-3.57v0c0-0.233 0.033-0.35 0.1-0.35v0c0.033 0 0.067 0.023 0.1 0.07 0.033 0.053 0.083 0.113 0.15 0.18zM96.36 45.65v0c0.067 0.1-0.05 0.25-0.35 0.45-0.3 0.2-0.5 0.317-0.6 0.35v0c-1.467 0.533-2.61 0.55-3.43 0.05-0.813-0.5-1.397-1.25-1.75-2.25-0.347-1-0.52-2.11-0.52-3.33 0-1.213 0.067-2.303 0.2-3.27v0c0.1-0.833 0.29-1.76 0.57-2.78 0.287-1.013 0.63-2.013 1.03-3 0.4-0.98 0.86-1.897 1.38-2.75 0.513-0.847 1.07-1.503 1.67-1.97v0c0.067-0.033 0.14-0.083 0.22-0.15 0.087-0.067 0.163-0.1 0.23-0.1v0c0.1 0.033 0.05 0.217-0.15 0.55v0c-0.2 0.333-0.44 0.8-0.72 1.4-0.287 0.6-0.58 1.29-0.88 2.07-0.3 0.787-0.59 1.613-0.87 2.48-0.287 0.867-0.513 1.733-0.68 2.6v0c-0.167 0.867-0.283 1.7-0.35 2.5-0.067 0.8-0.1 1.517-0.1 2.15 0 0.633 0.017 1.167 0.05 1.6 0.033 0.433 0.067 0.717 0.1 0.85v0c0.233 1.033 0.673 1.79 1.32 2.27 0.653 0.487 1.53 0.63 2.63 0.43v0c0.033 0 0.2-0.033 0.5-0.1 0.3-0.067 0.467-0.083 0.5-0.05zM102.81 49.5v0c0.133 0.133 0.2 0.233 0.2 0.3v0c0 0.067-0.073 0.083-0.22 0.05-0.153-0.033-0.263-0.067-0.33-0.1v0c-0.267-0.133-0.6-0.327-1-0.58-0.4-0.247-0.7-0.687-0.9-1.32v0c-0.1-0.267-0.167-0.593-0.2-0.98-0.033-0.38-0.05-0.737-0.05-1.07 0-0.333 0.033-0.61 0.1-0.83 0.067-0.213 0.15-0.303 0.25-0.27v0c0.067 0.033 0.14 0.183 0.22 0.45 0.087 0.267 0.163 0.55 0.23 0.85v0c0.067 0.367 0.15 0.707 0.25 1.02 0.1 0.32 0.217 0.647 0.35 0.98v0c0.167 0.367 0.333 0.657 0.5 0.87 0.167 0.22 0.367 0.43 0.6 0.63zM98.21 46.75v0c-0.367 0.567-0.923 1.14-1.67 1.72-0.753 0.587-1.763 0.88-3.03 0.88v0c-1 0-1.857-0.267-2.57-0.8-0.72-0.533-1.303-1.2-1.75-2-0.453-0.8-0.773-1.677-0.96-2.63-0.18-0.947-0.27-1.853-0.27-2.72v0c0.033-1.067 0.123-2.133 0.27-3.2 0.153-1.067 0.357-2.067 0.61-3 0.247-0.933 0.53-1.767 0.85-2.5 0.313-0.733 0.637-1.333 0.97-1.8v0c0.067-0.033 0.143-0.11 0.23-0.23 0.08-0.113 0.153-0.137 0.22-0.07v0c0.033 0.033 0.027 0.107-0.02 0.22-0.053 0.12-0.097 0.213-0.13 0.28v0c-0.3 1-0.59 2.057-0.87 3.17-0.287 1.12-0.513 2.247-0.68 3.38-0.167 1.133-0.25 2.25-0.25 3.35 0 1.1 0.1 2.117 0.3 3.05v0c0.133 0.633 0.377 1.217 0.73 1.75 0.347 0.533 0.73 0.983 1.15 1.35 0.413 0.367 0.863 0.633 1.35 0.8 0.48 0.167 0.953 0.217 1.42 0.15v0c0.967-0.133 1.7-0.407 2.2-0.82 0.5-0.42 0.857-0.923 1.07-1.51 0.22-0.58 0.357-1.213 0.41-1.9 0.047-0.68 0.12-1.37 0.22-2.07v0c-0.167 0.467-0.49 0.923-0.97 1.37-0.487 0.453-1.007 0.803-1.56 1.05-0.547 0.253-1.077 0.363-1.59 0.33-0.52-0.033-0.913-0.333-1.18-0.9v0c-0.333-0.733-0.517-1.533-0.55-2.4-0.033-0.867-0.017-1.817 0.05-2.85v0c0.067-1.033 0.217-2.1 0.45-3.2 0.233-1.1 0.55-2.16 0.95-3.18 0.4-1.013 0.877-1.97 1.43-2.87 0.547-0.9 1.17-1.7 1.87-2.4v0l0.2-0.2c0.1-0.1 0.2-0.15 0.3-0.15v0c0 0-0.067 0.167-0.2 0.5v0c-0.967 1.8-1.783 3.66-2.45 5.58-0.667 1.913-1.067 3.853-1.2 5.82v0c-0.167 2.167-0.057 3.583 0.33 4.25 0.38 0.667 0.853 0.857 1.42 0.57 0.567-0.28 1.173-0.897 1.82-1.85 0.653-0.947 1.18-1.97 1.58-3.07v0c0.367-1 0.757-2.033 1.17-3.1 0.42-1.067 0.807-2.143 1.16-3.23 0.347-1.08 0.613-2.137 0.8-3.17 0.18-1.033 0.22-2 0.12-2.9v0c0-0.167 0.033-0.25 0.1-0.25v0c0.033 0 0.05 0.017 0.05 0.05v0c0 0.067 0.017 0.1 0.05 0.1v0c0.033 0.033 0.05 0.067 0.05 0.1v0c0.533 1.133 0.777 2.283 0.73 3.45-0.053 1.167-0.253 2.35-0.6 3.55-0.353 1.2-0.77 2.423-1.25 3.67-0.487 1.253-0.897 2.513-1.23 3.78v0c-0.2 0.8-0.35 1.64-0.45 2.52-0.1 0.887-0.117 1.763-0.05 2.63 0.067 0.867 0.25 1.69 0.55 2.47 0.3 0.787 0.733 1.447 1.3 1.98v0c0.067 0.067 0.1 0.117 0.1 0.15v0c0 0.067-0.04 0.093-0.12 0.08-0.087-0.02-0.163-0.047-0.23-0.08v0c-0.633-0.233-1.183-0.617-1.65-1.15-0.467-0.533-0.833-1.167-1.1-1.9zM114.76 32.7v0c-0.267 1.133-0.643 2.323-1.13 3.57-0.48 1.253-1.02 2.413-1.62 3.48v0c0 0.067-0.043 0.173-0.13 0.32-0.08 0.153-0.187 0.23-0.32 0.23v0c-0.067 0-0.11-0.1-0.13-0.3-0.013-0.2-0.003-0.333 0.03-0.4v0c0-0.533 0.067-1.243 0.2-2.13 0.133-0.88 0.3-1.603 0.5-2.17v0c0.067-0.2 0.173-0.683 0.32-1.45 0.153-0.767 0.287-1.623 0.4-2.57 0.12-0.953 0.19-1.873 0.21-2.76 0.013-0.88-0.097-1.537-0.33-1.97v0-0.2c0.133-0.1 0.283-0.067 0.45 0.1v0c0.433 0.367 0.773 0.817 1.02 1.35 0.253 0.533 0.437 1.09 0.55 1.67 0.12 0.587 0.17 1.163 0.15 1.73-0.013 0.567-0.07 1.067-0.17 1.5zM116.71 32.5v0c0.367-0.467 0.717-0.8 1.05-1 0.333-0.2 0.667-0.367 1-0.5v0c0.033 0 0.117-0.017 0.25-0.05 0.133-0.033 0.233 0 0.3 0.1v0c0.067 0.1 0.05 0.217-0.05 0.35-0.1 0.133-0.183 0.233-0.25 0.3v0c-0.233 0.233-0.493 0.49-0.78 0.77-0.28 0.287-0.537 0.563-0.77 0.83v0c-0.333 0.367-0.6 0.79-0.8 1.27-0.2 0.487-0.35 0.98-0.45 1.48v0c0.567-0.6 1.11-1.167 1.63-1.7 0.513-0.533 1.07-1.033 1.67-1.5v0c0.767-0.567 1.433-1.3 2-2.2 0.567-0.9 0.967-2.217 1.2-3.95v0c0.067-0.167 0.15-0.267 0.25-0.3 0.1-0.033 0.15 0.083 0.15 0.35v0c0.1 1.933-0.1 3.467-0.6 4.6-0.5 1.133-1.25 2.083-2.25 2.85v0c-0.533 0.4-1.067 0.833-1.6 1.3-0.533 0.467-1.043 0.983-1.53 1.55-0.48 0.567-0.92 1.233-1.32 2-0.4 0.767-0.75 1.65-1.05 2.65v0c-0.233 0.767-0.467 1.49-0.7 2.17-0.233 0.687-0.483 1.347-0.75 1.98v0c-0.067 0.233-0.167 0.35-0.3 0.35v0c-0.1-0.033-0.15-0.2-0.15-0.5v0c-0.167-1.6-0.06-3.193 0.32-4.78 0.387-1.58 0.847-3.22 1.38-4.92v0c0.233-0.833 0.507-1.667 0.82-2.5 0.32-0.833 0.463-1.783 0.43-2.85v0c0-0.367 0.15-0.75 0.45-1.15 0.3-0.4 0.667-0.777 1.1-1.13 0.433-0.347 0.883-0.647 1.35-0.9 0.467-0.247 0.867-0.42 1.2-0.52v0c0.3-0.1 0.45-0.083 0.45 0.05 0 0.133-0.1 0.3-0.3 0.5v0c-0.7 0.633-1.41 1.383-2.13 2.25-0.713 0.867-1.12 1.783-1.22 2.75zM112.36 49.3v0c-0.033 0.033-0.06 0.04-0.08 0.02-0.013-0.013-0.103-0.07-0.27-0.17v0c-1-0.733-1.783-1.533-2.35-2.4-0.567-0.867-0.977-1.76-1.23-2.68-0.247-0.913-0.353-1.83-0.32-2.75 0.033-0.913 0.15-1.803 0.35-2.67v0c0.267-1.167 0.59-2.327 0.97-3.48 0.387-1.147 0.747-2.263 1.08-3.35 0.333-1.08 0.583-2.147 0.75-3.2 0.167-1.047 0.167-2.053 0-3.02v0c0-0.067 0.05-0.117 0.15-0.15v0c0.033 0 0.067 0.023 0.1 0.07 0.033 0.053 0.067 0.097 0.1 0.13v0c0.633 1.067 0.95 2.157 0.95 3.27 0 1.12-0.15 2.253-0.45 3.4-0.3 1.153-0.677 2.32-1.13 3.5-0.447 1.187-0.803 2.38-1.07 3.58v0c-0.333 1.533-0.357 3.167-0.07 4.9 0.28 1.733 1.053 3.283 2.32 4.65v0c0.067 0.1 0.133 0.167 0.2 0.2 0.067 0.033 0.067 0.083 0 0.15zM113.86 49.35v0c-0.067 0-0.133-0.017-0.2-0.05v0l-0.2-0.1c-0.467-0.3-0.883-0.627-1.25-0.98-0.367-0.347-0.683-0.853-0.95-1.52v0c-0.1-0.233-0.183-0.543-0.25-0.93-0.067-0.38-0.11-0.737-0.13-1.07-0.013-0.333 0.003-0.617 0.05-0.85 0.053-0.233 0.147-0.333 0.28-0.3v0c0.1 0 0.207 0.133 0.32 0.4 0.12 0.267 0.213 0.533 0.28 0.8v0c0.067 0.367 0.14 0.717 0.22 1.05 0.087 0.333 0.197 0.633 0.33 0.9v0c0.367 0.833 0.85 1.633 1.45 2.4v0c0.067 0.167 0.083 0.25 0.05 0.25zM122.01 26.9v0c0 0.7-0.2 1.317-0.6 1.85-0.4 0.533-0.883 0.983-1.45 1.35v0c-0.1 0.067-0.167 0.057-0.2-0.03-0.033-0.08-0.05-0.137-0.05-0.17v0c0-0.2 0.083-0.443 0.25-0.73 0.167-0.28 0.357-0.58 0.57-0.9 0.22-0.313 0.43-0.637 0.63-0.97 0.2-0.333 0.333-0.633 0.4-0.9v0c0.1-0.167 0.2-0.167 0.3 0 0.1 0.167 0.15 0.333 0.15 0.5zM130.26 32.85v0c0.1-0.433 0.157-0.933 0.17-1.5 0.02-0.567-0.02-1.15-0.12-1.75-0.1-0.6-0.273-1.177-0.52-1.73-0.253-0.547-0.58-1.02-0.98-1.42v0c-0.2-0.133-0.317-0.2-0.35-0.2v0c-0.133 0-0.133 0.1 0 0.3v0c0.2 0.433 0.273 1.107 0.22 2.02-0.047 0.92-0.153 1.87-0.32 2.85-0.167 0.987-0.34 1.87-0.52 2.65-0.187 0.787-0.297 1.263-0.33 1.43v0c-0.233 0.6-0.443 1.35-0.63 2.25-0.18 0.9-0.27 1.633-0.27 2.2v0c-0.033 0.067-0.05 0.2-0.05 0.4 0 0.2 0.05 0.317 0.15 0.35v0c0.033 0 0.1-0.083 0.2-0.25 0.1-0.167 0.183-0.283 0.25-0.35v0c0.6-1.067 1.173-2.233 1.72-3.5 0.553-1.267 1.013-2.517 1.38-3.75zM130.46 40.4v0c0.133-0.6 0.35-1.377 0.65-2.33 0.3-0.947 0.55-1.93 0.75-2.95 0.2-1.013 0.3-2.013 0.3-3 0-0.98-0.2-1.787-0.6-2.42v0c-0.133-0.133-0.233-0.2-0.3-0.2v0c-0.067 0-0.083 0.067-0.05 0.2v0c0 1.267-0.14 2.44-0.42 3.52-0.287 1.087-0.597 2.147-0.93 3.18v0c-0.567 1.7-1.083 3.357-1.55 4.97-0.467 1.62-0.667 3.28-0.6 4.98v0c0 0.1 0.007 0.207 0.02 0.32 0.02 0.12 0.08 0.18 0.18 0.18v0c0.067 0 0.117-0.033 0.15-0.1 0.033-0.067 0.083-0.167 0.15-0.3v0c0.333-0.8 0.717-1.743 1.15-2.83 0.433-1.08 0.8-2.153 1.1-3.22zM126.91 49.35v0c-0.633-0.667-1.117-1.41-1.45-2.23-0.333-0.813-0.567-1.647-0.7-2.5-0.133-0.847-0.167-1.703-0.1-2.57 0.067-0.867 0.2-1.683 0.4-2.45v0c0.3-1.2 0.683-2.4 1.15-3.6 0.467-1.2 0.867-2.393 1.2-3.58 0.333-1.18 0.523-2.347 0.57-3.5 0.053-1.147-0.187-2.27-0.72-3.37v0c-0.1-0.167-0.167-0.25-0.2-0.25v0c-0.033 0-0.05 0.023-0.05 0.07 0 0.053 0.017 0.097 0.05 0.13v0c0.1 1 0.033 2.033-0.2 3.1-0.233 1.067-0.533 2.157-0.9 3.27-0.367 1.12-0.777 2.27-1.23 3.45-0.447 1.187-0.82 2.397-1.12 3.63v0c-0.233 0.9-0.393 1.817-0.48 2.75-0.08 0.933-0.02 1.857 0.18 2.77 0.2 0.92 0.567 1.797 1.1 2.63 0.533 0.833 1.3 1.6 2.3 2.3v0c0.067 0.067 0.15 0.11 0.25 0.13 0.1 0.013 0.083-0.047-0.05-0.18zM127.31 47.45v0c-0.1-0.267-0.21-0.6-0.33-1-0.113-0.4-0.203-0.783-0.27-1.15v0c-0.067-0.133-0.15-0.383-0.25-0.75-0.1-0.367-0.183-0.55-0.25-0.55v0c-0.133 0-0.227 0.117-0.28 0.35-0.047 0.233-0.07 0.523-0.07 0.87 0 0.353 0.023 0.72 0.07 1.1 0.053 0.387 0.13 0.713 0.23 0.98v0c0.2 0.667 0.44 1.133 0.72 1.4 0.287 0.267 0.663 0.483 1.13 0.65v0c0.2 0.1 0.35 0.15 0.45 0.15v0c0.033 0 0.04-0.023 0.02-0.07-0.013-0.053-0.037-0.08-0.07-0.08v0c-0.233-0.267-0.44-0.55-0.62-0.85-0.187-0.3-0.347-0.65-0.48-1.05zM131.21 21.6v0c-0.167 0-0.427-0.027-0.78-0.08-0.347-0.047-0.52-0.203-0.52-0.47v0c0-0.1 0.15-0.227 0.45-0.38 0.3-0.147 0.633-0.363 1-0.65 0.367-0.28 0.7-0.647 1-1.1 0.3-0.447 0.45-1.02 0.45-1.72v0c0-0.867-0.167-1.517-0.5-1.95v0c-0.067-0.1-0.15-0.21-0.25-0.33-0.1-0.113-0.133-0.187-0.1-0.22v0c0.067 0 0.14 0.023 0.22 0.07 0.087 0.053 0.147 0.097 0.18 0.13v0c0.667 0.367 1.173 0.843 1.52 1.43 0.353 0.58 0.53 1.137 0.53 1.67v0c0 1.067-0.25 1.933-0.75 2.6-0.5 0.667-1.317 1-2.45 1zM129.36 19.6v0c-0.4 0.167-0.6 0.067-0.6-0.3v0c0-0.267 0.1-0.527 0.3-0.78 0.2-0.247 0.39-0.52 0.57-0.82 0.187-0.3 0.313-0.643 0.38-1.03 0.067-0.38-0.033-0.853-0.3-1.42v0c-0.067-0.167-0.183-0.35-0.35-0.55-0.167-0.2-0.217-0.317-0.15-0.35v0c0.067-0.033 0.207-0.01 0.42 0.07 0.22 0.087 0.363 0.147 0.43 0.18v0c0.567 0.267 0.993 0.667 1.28 1.2 0.28 0.533 0.42 1 0.42 1.4v0c0 0.633-0.26 1.157-0.78 1.57-0.513 0.42-1.053 0.697-1.62 0.83zM127.91 16.9v0c0-0.167 0.05-0.357 0.15-0.57 0.1-0.22 0.267-0.33 0.5-0.33v0c0.167 0 0.3 0.11 0.4 0.33 0.1 0.213 0.15 0.403 0.15 0.57v0c0 0.133-0.05 0.307-0.15 0.52-0.1 0.22-0.233 0.33-0.4 0.33v0c-0.233 0-0.4-0.1-0.5-0.3-0.1-0.2-0.15-0.383-0.15-0.55zM138.51 30.9v0c0.033-0.3 0.133-0.66 0.3-1.08 0.167-0.413 0.393-0.813 0.68-1.2 0.28-0.38 0.62-0.73 1.02-1.05 0.4-0.313 0.85-0.52 1.35-0.62v0c1.067-0.2 1.95-0.133 2.65 0.2 0.7 0.333 1.233 0.717 1.6 1.15v0c0.133 0.2 0.183 0.317 0.15 0.35v0c-0.067 0.067-0.183 0.05-0.35-0.05v0c-0.2-0.133-0.523-0.25-0.97-0.35-0.453-0.1-0.937-0.127-1.45-0.08-0.52 0.053-1.02 0.213-1.5 0.48-0.487 0.267-0.88 0.7-1.18 1.3v0c-0.267 0.567-0.45 1.15-0.55 1.75-0.1 0.6-0.157 1.157-0.17 1.67-0.02 0.52-0.013 0.963 0.02 1.33 0.033 0.367 0.05 0.617 0.05 0.75v0c0.067 0.367 0.127 0.823 0.18 1.37 0.047 0.553 0.07 1.113 0.07 1.68 0 0.567-0.017 1.123-0.05 1.67-0.033 0.553-0.1 1.03-0.2 1.43v0c-0.033 0.1-0.073 0.267-0.12 0.5-0.053 0.233-0.113 0.35-0.18 0.35v0c-0.167 0-0.25-0.117-0.25-0.35 0-0.233 0-0.4 0-0.5v0c-0.067-0.833-0.183-1.677-0.35-2.53-0.167-0.847-0.323-1.72-0.47-2.62-0.153-0.9-0.263-1.81-0.33-2.73-0.067-0.913-0.05-1.853 0.05-2.82zM136.76 40.8v0c0.033-0.667-0.023-1.61-0.17-2.83-0.153-1.213-0.213-2.62-0.18-4.22v0c0.033-0.833 0.117-1.693 0.25-2.58 0.133-0.88 0.45-1.753 0.95-2.62v0c0.533-0.933 1.21-1.627 2.03-2.08 0.813-0.447 1.52-0.653 2.12-0.62v0c0.1 0 0.2 0 0.3 0 0.1 0 0.15 0.017 0.15 0.05v0c0 0.067-0.017 0.09-0.05 0.07-0.033-0.013-0.15 0.013-0.35 0.08v0c-0.6 0.167-1.133 0.44-1.6 0.82-0.467 0.387-0.867 0.83-1.2 1.33-0.333 0.5-0.6 1.017-0.8 1.55-0.2 0.533-0.317 1.017-0.35 1.45v0c-0.2 1.833-0.183 3.433 0.05 4.8v0c0.167 1.1 0.3 2.24 0.4 3.42 0.1 1.187 0.06 2.27-0.12 3.25-0.187 0.987-0.537 1.803-1.05 2.45-0.52 0.653-1.313 1.013-2.38 1.08v0c-0.1 0-0.223-0.01-0.37-0.03-0.153-0.013-0.23-0.053-0.23-0.12v0c0-0.067 0.15-0.183 0.45-0.35v0c0.867-0.4 1.433-0.983 1.7-1.75 0.267-0.767 0.417-1.817 0.45-3.15zM131.46 46.7v0c0.467 0.733 1.21 1.273 2.23 1.62 1.013 0.353 2.22 0.33 3.62-0.07v0c0.7-0.2 1.317-0.55 1.85-1.05 0.533-0.5 0.977-1.06 1.33-1.68 0.347-0.613 0.613-1.253 0.8-1.92 0.18-0.667 0.287-1.283 0.32-1.85v0c0.033-0.933 0.01-1.85-0.07-2.75-0.087-0.9-0.187-1.777-0.3-2.63-0.12-0.847-0.22-1.67-0.3-2.47-0.087-0.8-0.097-1.583-0.03-2.35v0c0.067-0.833 0.3-1.467 0.7-1.9 0.4-0.433 0.893-0.71 1.48-0.83 0.58-0.113 1.187-0.07 1.82 0.13 0.633 0.2 1.217 0.517 1.75 0.95v0c0.133 0.067 0.183 0.15 0.15 0.25v0c0 0.067-0.033 0.083-0.1 0.05-0.067-0.033-0.133-0.067-0.2-0.1v0c-1.233-0.4-2.19-0.517-2.87-0.35-0.687 0.167-1.063 0.767-1.13 1.8v0c-0.067 1.2 0.027 2.607 0.28 4.22 0.247 1.62 0.337 3.413 0.27 5.38v0c0.033 0.667-0.04 1.433-0.22 2.3-0.187 0.867-0.487 1.707-0.9 2.52-0.42 0.82-0.97 1.547-1.65 2.18-0.687 0.633-1.497 1.033-2.43 1.2v0c-1.767 0.267-3.173 0.167-4.22-0.3-1.053-0.467-1.813-1.183-2.28-2.15v0c-0.067-0.2-0.1-0.317-0.1-0.35v0h0.05c0 0 0.05 0.05 0.15 0.15zM133.66 46.7v0c0.633 0.167 1.4 0.233 2.3 0.2v0c0.3-0.033 0.667-0.117 1.1-0.25 0.433-0.133 0.667-0.167 0.7-0.1v0c0.1 0.133 0 0.3-0.3 0.5-0.3 0.2-0.683 0.373-1.15 0.52-0.467 0.153-0.95 0.253-1.45 0.3-0.5 0.053-0.917 0.013-1.25-0.12v0c-0.633-0.267-1.09-0.56-1.37-0.88-0.287-0.313-0.547-0.703-0.78-1.17v0l-0.1-0.2c-0.067-0.133-0.083-0.217-0.05-0.25v0c0.033-0.033 0.083-0.033 0.15 0v0c0.033 0.033 0.05 0.067 0.05 0.1v0c0.4 0.367 0.743 0.64 1.03 0.82 0.28 0.187 0.653 0.363 1.12 0.53zM156.41 23v0c-0.567 1.967-1.207 3.983-1.92 6.05-0.72 2.067-1.463 4.017-2.23 5.85v0c-0.033 0.1-0.123 0.283-0.27 0.55-0.153 0.267-0.28 0.383-0.38 0.35v0c-0.067 0-0.107-0.16-0.12-0.48-0.02-0.313-0.013-0.553 0.02-0.72v0c0.067-0.433 0.167-0.967 0.3-1.6 0.133-0.633 0.277-1.283 0.43-1.95 0.147-0.667 0.297-1.317 0.45-1.95 0.147-0.633 0.303-1.183 0.47-1.65v0c0.067-0.2 0.183-0.633 0.35-1.3 0.167-0.667 0.35-1.467 0.55-2.4 0.2-0.933 0.41-1.933 0.63-3 0.213-1.067 0.397-2.1 0.55-3.1 0.147-1 0.253-1.917 0.32-2.75 0.067-0.833 0.05-1.467-0.05-1.9v0c-0.1-0.333-0.1-0.5 0-0.5v0c0.067 0 0.127 0.04 0.18 0.12 0.047 0.087 0.103 0.163 0.17 0.23v0c0.333 0.6 0.593 1.333 0.78 2.2 0.18 0.867 0.287 1.767 0.32 2.7 0.033 0.933 0 1.867-0.1 2.8-0.1 0.933-0.25 1.75-0.45 2.45zM154.41 11.45v0c0.433 1.7 0.543 3.483 0.33 5.35-0.22 1.867-0.597 3.767-1.13 5.7-0.533 1.933-1.133 3.89-1.8 5.87-0.667 1.987-1.233 3.98-1.7 5.98v0c-0.3 1.267-0.543 2.573-0.73 3.92-0.18 1.353-0.27 2.687-0.27 4 0 1.32 0.11 2.587 0.33 3.8 0.213 1.22 0.587 2.313 1.12 3.28v0c0.067 0.133 0.09 0.233 0.07 0.3-0.013 0.067-0.12-0.033-0.32-0.3v0c-0.867-1-1.51-2.133-1.93-3.4-0.413-1.267-0.653-2.6-0.72-4-0.067-1.4 0-2.85 0.2-4.35 0.2-1.5 0.483-2.967 0.85-4.4v0c0.5-2 1.057-3.967 1.67-5.9 0.62-1.933 1.203-3.817 1.75-5.65 0.553-1.833 1.013-3.607 1.38-5.32 0.367-1.72 0.55-3.38 0.55-4.98v0c0-0.167 0.017-0.25 0.05-0.25v0c0.133 0 0.233 0.117 0.3 0.35zM163.51 49.35v0c-1.233-0.567-2.217-1.45-2.95-2.65-0.733-1.2-1.183-2.583-1.35-4.15v0c-0.167-1.533-0.167-2.81 0-3.83 0.167-1.013 0.367-2.02 0.6-3.02v0c0.033-0.133 0.1-0.36 0.2-0.68 0.1-0.313 0.177-0.637 0.23-0.97 0.047-0.333 0.047-0.627 0-0.88-0.053-0.247-0.197-0.403-0.43-0.47v0c-0.467-0.1-1 0.107-1.6 0.62-0.6 0.52-1.173 1.163-1.72 1.93-0.553 0.767-1.053 1.557-1.5 2.37-0.453 0.82-0.747 1.463-0.88 1.93v0c-0.3 0.967-0.617 1.883-0.95 2.75-0.333 0.867-0.633 1.733-0.9 2.6v0c-0.1 0.367-0.183 0.533-0.25 0.5v0c-0.067 0-0.11-0.067-0.13-0.2-0.013-0.133-0.02-0.283-0.02-0.45v0c0-1.333 0.1-2.677 0.3-4.03 0.2-1.347 0.477-2.687 0.83-4.02 0.347-1.333 0.737-2.667 1.17-4 0.433-1.333 0.85-2.683 1.25-4.05v0c0.533-1.7 1.043-3.433 1.53-5.2 0.48-1.767 0.803-3.667 0.97-5.7v0c0-0.167 0-0.26 0-0.28 0-0.013 0.017-0.02 0.05-0.02v0c0.1 0 0.183 0.133 0.25 0.4v0c0.167 0.433 0.243 1.04 0.23 1.82-0.02 0.787-0.087 1.647-0.2 2.58-0.12 0.933-0.287 1.883-0.5 2.85-0.22 0.967-0.447 1.833-0.68 2.6v0c0.633-0.667 1.383-1.183 2.25-1.55 0.867-0.367 1.9-0.467 3.1-0.3v0c1.367 0.2 2.417 0.69 3.15 1.47 0.733 0.787 1.233 1.73 1.5 2.83 0.267 1.1 0.343 2.273 0.23 3.52-0.12 1.253-0.33 2.463-0.63 3.63v0c-0.267 0.9-0.517 1.69-0.75 2.37-0.233 0.687-0.467 1.313-0.7 1.88-0.233 0.567-0.433 1.1-0.6 1.6-0.167 0.5-0.3 1.033-0.4 1.6v0c-0.067 0.367-0.133 0.55-0.2 0.55v0c-0.067 0-0.123-0.067-0.17-0.2-0.053-0.133-0.097-0.267-0.13-0.4v0c-0.2-0.733-0.207-1.633-0.02-2.7 0.18-1.067 0.42-2.193 0.72-3.38 0.3-1.18 0.577-2.38 0.83-3.6 0.247-1.213 0.347-2.337 0.3-3.37-0.053-1.033-0.33-1.943-0.83-2.73-0.5-0.78-1.35-1.32-2.55-1.62v0c-0.5-0.133-1.04-0.177-1.62-0.13-0.587 0.053-1.137 0.187-1.65 0.4-0.52 0.22-0.98 0.53-1.38 0.93-0.4 0.4-0.667 0.867-0.8 1.4v0c0.633-0.667 1.45-1.217 2.45-1.65 1-0.433 1.967-0.5 2.9-0.2v0c0.867 0.267 1.483 0.75 1.85 1.45 0.367 0.7 0.583 1.317 0.65 1.85v0c0.133 1.167 0.06 2.223-0.22 3.17-0.287 0.953-0.613 1.863-0.98 2.73v0c-0.067 0.1-0.167 0.257-0.3 0.47-0.133 0.22-0.233 0.313-0.3 0.28v0c-0.067 0-0.1-0.133-0.1-0.4 0-0.267 0.017-0.467 0.05-0.6v0c0.1-0.333 0.183-0.86 0.25-1.58 0.067-0.713 0.093-1.453 0.08-2.22-0.02-0.767-0.12-1.483-0.3-2.15-0.187-0.667-0.48-1.117-0.88-1.35v0c-0.467-0.267-1.033-0.343-1.7-0.23-0.667 0.12-1.383 0.53-2.15 1.23v0c-0.667 0.6-1.233 1.293-1.7 2.08-0.467 0.78-0.867 1.803-1.2 3.07v0c0.2-0.367 0.517-0.883 0.95-1.55 0.433-0.667 0.927-1.3 1.48-1.9 0.547-0.6 1.13-1.077 1.75-1.43 0.613-0.347 1.203-0.387 1.77-0.12v0c0.367 0.2 0.61 0.54 0.73 1.02 0.113 0.487 0.147 1.03 0.1 1.63-0.053 0.6-0.147 1.183-0.28 1.75-0.133 0.567-0.25 1.017-0.35 1.35v0c-0.367 1-0.617 2.093-0.75 3.28-0.133 1.18-0.123 2.337 0.03 3.47 0.147 1.133 0.47 2.2 0.97 3.2 0.5 1 1.233 1.85 2.2 2.55v0c0.3 0.167 0.36 0.25 0.18 0.25-0.187 0-0.313 0-0.38 0zM164.81 48.95v0c-0.467-0.267-0.907-0.55-1.32-0.85-0.42-0.3-0.83-0.883-1.23-1.75v0c-0.167-0.333-0.29-0.783-0.37-1.35-0.087-0.567-0.137-1.11-0.15-1.63-0.02-0.513 0.003-0.947 0.07-1.3 0.067-0.347 0.15-0.503 0.25-0.47v0c0.067 0 0.133 0.073 0.2 0.22 0.067 0.153 0.117 0.33 0.15 0.53 0.033 0.2 0.067 0.39 0.1 0.57 0.033 0.187 0.05 0.313 0.05 0.38v0c0.133 0.733 0.25 1.277 0.35 1.63 0.1 0.347 0.233 0.72 0.4 1.12v0c0.267 0.533 0.533 1.017 0.8 1.45 0.267 0.433 0.6 0.833 1 1.2v0c0.167 0.133 0.21 0.233 0.13 0.3-0.087 0.067-0.23 0.05-0.43-0.05zM152.16 49.35v0c0.033 0 0.01 0.017-0.07 0.05-0.087 0.033-0.247 0.017-0.48-0.05v0c-0.267-0.133-0.54-0.383-0.82-0.75-0.287-0.367-0.513-1.083-0.68-2.15v0c-0.067-0.433-0.1-0.96-0.1-1.58 0-0.613 0.027-1.197 0.08-1.75 0.047-0.547 0.12-1.02 0.22-1.42 0.1-0.4 0.217-0.583 0.35-0.55v0c0.033 0 0.067 0.1 0.1 0.3 0.033 0.2 0.067 0.423 0.1 0.67 0.033 0.253 0.05 0.503 0.05 0.75 0 0.253 0 0.43 0 0.53v0c0.033 0.733 0.077 1.273 0.13 1.62 0.047 0.353 0.12 0.83 0.22 1.43v0c0.1 0.633 0.217 1.207 0.35 1.72 0.133 0.52 0.317 0.913 0.55 1.18zM187.76 31.75v0c-0.267 1.333-0.717 2.667-1.35 4-0.633 1.333-1.233 2.583-1.8 3.75v0c-0.033 0.067-0.107 0.183-0.22 0.35-0.12 0.167-0.213 0.25-0.28 0.25v0c-0.1-0.033-0.15-0.143-0.15-0.33 0-0.18 0-0.303 0-0.37v0c0.033-0.3 0.093-0.66 0.18-1.08 0.08-0.413 0.153-0.847 0.22-1.3 0.067-0.447 0.143-0.88 0.23-1.3 0.08-0.413 0.17-0.787 0.27-1.12v0c0.3-1.133 0.55-2.11 0.75-2.93 0.2-0.813 0.35-1.553 0.45-2.22 0.1-0.667 0.16-1.3 0.18-1.9 0.013-0.6-0.03-1.25-0.13-1.95v0c-0.033-0.267-0.017-0.433 0.05-0.5v0c0.067-0.033 0.15 0 0.25 0.1 0.1 0.1 0.183 0.2 0.25 0.3v0c0.567 0.9 0.95 1.89 1.15 2.97 0.2 1.087 0.183 2.18-0.05 3.28zM188.76 28.1l0.2 0.3c0.433 0.633 0.65 1.467 0.65 2.5 0 1.033-0.1 2.09-0.3 3.17-0.2 1.087-0.45 2.13-0.75 3.13-0.3 1-0.517 1.8-0.65 2.4v0c-0.267 1.167-0.633 2.333-1.1 3.5-0.467 1.167-0.867 2.2-1.2 3.1v0c-0.033 0.1-0.083 0.207-0.15 0.32-0.067 0.12-0.133 0.18-0.2 0.18v0c-0.067 0-0.1-0.067-0.1-0.2 0-0.133 0-0.25 0-0.35v0c-0.1-1.833 0.1-3.627 0.6-5.38 0.5-1.747 1.033-3.52 1.6-5.32v0c0.333-1.1 0.65-2.227 0.95-3.38 0.3-1.147 0.433-2.403 0.4-3.77v0c0-0.133 0.017-0.2 0.05-0.2zM184.26 27.55v0c-2.033 0.833-3.757 2.023-5.17 3.57-1.42 1.553-2.513 3.297-3.28 5.23v0c-0.333 0.867-0.583 1.64-0.75 2.32-0.167 0.687-0.3 1.43-0.4 2.23v0c-0.033 0.167 0.017 0.333 0.15 0.5 0.133 0.167 0.267 0.167 0.4 0v0c0.6-0.733 1.367-1.667 2.3-2.8 0.933-1.133 1.867-2.333 2.8-3.6 0.933-1.267 1.777-2.55 2.53-3.85 0.747-1.3 1.22-2.5 1.42-3.6zM180.91 44.5v0c-0.5 0.7-0.983 1.35-1.45 1.95-0.467 0.6-0.983 1.123-1.55 1.57-0.567 0.453-1.2 0.813-1.9 1.08-0.7 0.267-1.5 0.417-2.4 0.45v0c-1.5 0.067-2.64-0.317-3.42-1.15-0.787-0.833-1.33-1.85-1.63-3.05-0.3-1.2-0.407-2.443-0.32-3.73 0.08-1.28 0.253-2.337 0.52-3.17v0c0.367-1.167 0.81-2.277 1.33-3.33 0.513-1.047 1.063-1.993 1.65-2.84 0.58-0.853 1.18-1.59 1.8-2.21 0.613-0.613 1.22-1.087 1.82-1.42v0c0.033 0 0.11-0.033 0.23-0.1 0.113-0.067 0.17-0.05 0.17 0.05v0c0.033 0 0.017 0.05-0.05 0.15-0.067 0.1-0.133 0.183-0.2 0.25v0c-1.733 1.8-3.107 3.833-4.12 6.1-1.02 2.267-1.597 4.6-1.73 7v0c-0.033 0.6-0.007 1.25 0.08 1.95 0.08 0.7 0.247 1.357 0.5 1.97 0.247 0.62 0.603 1.137 1.07 1.55 0.467 0.42 1.1 0.63 1.9 0.63v0c0.633 0 1.217-0.11 1.75-0.33 0.533-0.213 1.033-0.497 1.5-0.85 0.467-0.347 0.893-0.73 1.28-1.15 0.38-0.413 0.72-0.803 1.02-1.17v0c0.667-0.833 1.283-1.7 1.85-2.6v0c0-0.667 0.043-1.317 0.13-1.95 0.08-0.633 0.203-1.267 0.37-1.9v0c0.1-0.467 0.193-0.843 0.28-1.13 0.08-0.28 0.163-0.547 0.25-0.8 0.08-0.247 0.163-0.513 0.25-0.8 0.08-0.28 0.203-0.653 0.37-1.12v0c-0.533 0.933-1.057 1.807-1.57 2.62-0.52 0.82-1.07 1.603-1.65 2.35-0.587 0.753-1.187 1.487-1.8 2.2-0.62 0.72-1.297 1.447-2.03 2.18v0c-0.567 0.567-1.033 0.75-1.4 0.55-0.367-0.2-0.583-0.667-0.65-1.4v0c-0.067-1.133-0.007-2.233 0.18-3.3 0.18-1.067 0.503-2.183 0.97-3.35v0c0.433-1.067 0.977-2.1 1.63-3.1 0.647-1 1.397-1.91 2.25-2.73 0.847-0.813 1.787-1.513 2.82-2.1 1.033-0.58 2.133-0.97 3.3-1.17v0c0.067-0.367 0.127-0.683 0.18-0.95 0.047-0.267 0.087-0.533 0.12-0.8v0c0.067-0.367 0.1-0.55 0.1-0.55v0c0.067-0.033 0.143 0 0.23 0.1 0.08 0.1 0.153 0.233 0.22 0.4v0c0.4 1.1 0.533 2.2 0.4 3.3-0.133 1.1-0.373 2.217-0.72 3.35-0.353 1.133-0.763 2.29-1.23 3.47-0.467 1.187-0.85 2.38-1.15 3.58v0c-0.4 1.7-0.507 3.457-0.32 5.27 0.18 1.82 0.887 3.463 2.12 4.93v0c0.1 0.133 0.15 0.2 0.15 0.2v0c-0.033 0.033-0.133 0-0.3-0.1v0c-0.967-0.6-1.69-1.327-2.17-2.18-0.487-0.847-0.83-1.737-1.03-2.67zM182.66 26.8v0c0.067 0.067 0.06 0.117-0.02 0.15-0.087 0.033-0.263 0.083-0.53 0.15v0c-0.433 0.133-0.957 0.383-1.57 0.75-0.62 0.367-1.27 0.833-1.95 1.4-0.687 0.567-1.363 1.223-2.03 1.97-0.667 0.753-1.25 1.563-1.75 2.43v0c-0.5 0.9-0.923 1.783-1.27 2.65-0.353 0.867-0.637 1.657-0.85 2.37-0.22 0.72-0.38 1.337-0.48 1.85-0.1 0.52-0.15 0.88-0.15 1.08v0c0 0.5 0 1.023 0 1.57 0 0.553 0.067 1.047 0.2 1.48 0.133 0.433 0.367 0.767 0.7 1 0.333 0.233 0.833 0.3 1.5 0.2v0c0.033 0 0.117-0.027 0.25-0.08 0.133-0.047 0.267-0.097 0.4-0.15 0.133-0.047 0.26-0.087 0.38-0.12 0.113-0.033 0.187-0.05 0.22-0.05v0c0.033 0.067 0.01 0.15-0.07 0.25-0.087 0.1-0.197 0.207-0.33 0.32-0.133 0.12-0.257 0.23-0.37 0.33-0.12 0.1-0.197 0.167-0.23 0.2v0c-0.833 0.5-1.533 0.65-2.1 0.45-0.567-0.2-1.007-0.577-1.32-1.13-0.32-0.547-0.537-1.197-0.65-1.95-0.12-0.747-0.163-1.42-0.13-2.02v0c0.067-1.167 0.25-2.327 0.55-3.48 0.3-1.147 0.683-2.303 1.15-3.47v0c0.367-0.9 0.917-1.827 1.65-2.78 0.733-0.947 1.56-1.82 2.48-2.62 0.913-0.8 1.87-1.46 2.87-1.98 1-0.513 1.967-0.787 2.9-0.82v0c0.333 0 0.517 0.017 0.55 0.05zM185.61 49.25v0c0.067 0.1 0.083 0.167 0.05 0.2v0c-0.1 0-0.233-0.033-0.4-0.1v0c-0.1-0.067-0.367-0.267-0.8-0.6-0.433-0.333-0.75-0.867-0.95-1.6v0c-0.067-0.267-0.123-0.61-0.17-1.03-0.053-0.413-0.08-0.803-0.08-1.17 0-0.367 0.027-0.683 0.08-0.95 0.047-0.267 0.12-0.4 0.22-0.4v0c0.1 0 0.21 0.2 0.33 0.6 0.113 0.4 0.187 0.65 0.22 0.75v0c0.1 0.467 0.193 0.873 0.28 1.22 0.08 0.353 0.17 0.68 0.27 0.98v0c0.133 0.367 0.31 0.783 0.53 1.25 0.213 0.467 0.353 0.75 0.42 0.85z" fill="#000000" fill-rule="nonzero" stroke="none" stroke-width="1" stroke-linecap="butt" stroke-linejoin="miter" stroke-miterlimit="10" stroke-dasharray="" stroke-dashoffset="0" font-family="none" font-weight="none" font-size="none" text-anchor="none" style="mix-blend-mode: normal" data-fill-palette-color="primary" opacity="1"></path></g></svg></g></svg></g></svg></g></svg></g></svg></g></svg></g></svg></g></svg></g><defs></defs></svg><rect width="320" height="360" fill="none" stroke="none" visibility="hidden"></rect></g></svg></g></svg>