<svg xmlns="http://www.w3.org/2000/svg" version="1.1" xmlns:xlink="http://www.w3.org/1999/xlink" xmlns:svgjs="http://svgjs.dev/svgjs" width="1500" height="1500" viewBox="0 0 1500 1500"><rect width="1500" height="1500" fill="#000000"></rect><g transform="matrix(0.6666666666666666,0,0,0.6666666666666666,249.78425655976667,249.78425655976673)"><svg viewBox="0 0 343 343" data-background-color="#c408ea" preserveAspectRatio="xMidYMid meet" height="1500" width="1500" xmlns="http://www.w3.org/2000/svg" xmlns:xlink="http://www.w3.org/1999/xlink"><g id="tight-bounds" transform="matrix(1,0,0,1,0.0740000000000407,0.07400000000001228)"><svg viewBox="0 0 342.85155851775386 342.85155851775386" height="342.85155851775386" width="342.85155851775386"><g><svg></svg></g><g><svg viewBox="0 0 342.85155851775386 342.85155851775386" height="342.85155851775386" width="342.85155851775386"><g><path d="M0 171.426c0-94.676 76.75-171.426 171.426-171.426 94.676 0 171.426 76.75 171.426 171.426 0 94.676-76.75 171.426-171.426 171.426-94.676 0-171.426-76.75-171.426-171.426zM171.426 340.644c93.457 0 169.218-75.762 169.218-169.218 0-93.457-75.762-169.218-169.218-169.218-93.457 0-169.218 75.762-169.218 169.218 0 93.457 75.762 169.218 169.218 169.218z" data-fill-palette-color="tertiary" fill="#ffffff" stroke="transparent"></path><ellipse rx="164.56874808852186" ry="164.56874808852186" cx="171.42577925887693" cy="171.42577925887693" fill="#ffffff" stroke="transparent" stroke-width="0" fill-opacity="1" data-fill-palette-color="tertiary"></ellipse></g><g transform="matrix(1,0,0,1,64.84655864529837,123.87163932228157)"><svg viewBox="0 0 213.1584412271571 95.10827987319072" height="95.10827987319072" width="213.1584412271571"><g><svg viewBox="0 0 213.1584412271571 95.10827987319072" height="95.10827987319072" width="213.1584412271571"><g><svg viewBox="0 0 213.1584412271571 95.10827987319072" height="95.10827987319072" width="213.1584412271571"><g transform="matrix(1,0,0,1,0,57.60643329950569)"><svg viewBox="0 0 213.1584412271571 37.50184657368504" height="37.50184657368504" width="213.1584412271571"><g id="textblocktransform"><svg viewBox="0 0 213.1584412271571 37.50184657368504" height="37.50184657368504" width="213.1584412271571" id="textblock"><g><svg viewBox="0 0 213.1584412271571 24.478902280083343" height="24.478902280083343" width="213.1584412271571"><g transform="matrix(1,0,0,1,0,0)"><svg width="213.1584412271571" viewBox="2.66 -36.74 325.23999999999995 37.35" height="24.478902280083343" data-palette-color="#c103ff"><path d="M17.87 0.61L17.87 0.61Q13.43 0.61 9.99-1.48 6.54-3.56 4.6-7.48 2.66-11.4 2.66-16.89L2.66-16.89Q2.66-22.34 4.66-26.27 6.67-30.2 10.16-32.34 13.65-34.47 18.14-34.47L18.14-34.47Q21.66-34.47 24-33.15 26.34-31.84 27.81-30.3L27.81-30.3 25.61-27.76Q24.34-29.13 22.56-30.02 20.78-30.91 18.24-30.91L18.24-30.91Q14.77-30.91 12.21-29.21 9.64-27.51 8.24-24.4 6.84-21.29 6.84-16.99L6.84-16.99Q6.84-10.5 9.79-6.71 12.74-2.93 18.24-2.93L18.24-2.93Q20.09-2.93 21.78-3.45 23.46-3.98 24.51-4.98L24.51-4.98 24.51-14.06 17.21-14.06 17.21-17.41 28.22-17.41 28.22-3.3Q26.61-1.59 23.93-0.49 21.24 0.61 17.87 0.61ZM43.26 0.61L43.26 0.61Q39.33 0.61 37.49-1.86 35.64-4.32 35.64-9.11L35.64-9.11 35.64-24.98 39.55-24.98 39.55-9.62Q39.55-6.08 40.71-4.46 41.87-2.83 44.46-2.83L44.46-2.83Q46.41-2.83 47.96-3.85 49.51-4.86 51.36-7.15L51.36-7.15 51.36-24.98 55.27-24.98 55.27 0 52.02 0 51.68-3.96 51.51-3.96Q49.78-1.9 47.8-0.65 45.82 0.61 43.26 0.61ZM67.84 0L63.89 0 63.89-24.98 67.18-24.98 67.55-20.46 67.65-20.46Q68.96-22.8 70.8-24.21 72.63-25.61 74.75-25.61L74.75-25.61Q76.36-25.61 77.39-25.1L77.39-25.1 76.51-21.73Q75.97-21.9 75.5-21.97 75.02-22.05 74.24-22.05L74.24-22.05Q72.65-22.05 70.89-20.74 69.14-19.43 67.84-16.16L67.84-16.16 67.84 0ZM87.32 0.61L87.32 0.61Q84.2 0.61 82.1-1.21 80-3.03 80-6.42L80-6.42Q80-10.52 83.72-12.72 87.44-14.92 95.48-15.82L95.48-15.82Q95.48-17.48 95.02-18.97 94.57-20.46 93.44-21.41 92.3-22.36 90.2-22.36L90.2-22.36Q87.98-22.36 86.04-21.51 84.1-20.65 82.63-19.73L82.63-19.73 81.1-22.36Q82.76-23.51 85.28-24.56 87.81-25.61 90.84-25.61L90.84-25.61Q95.4-25.61 97.42-22.8 99.43-20 99.43-15.41L99.43-15.41 99.43 0 96.14 0 95.82-3.03 95.67-3.03Q93.86-1.54 91.75-0.46 89.64 0.61 87.32 0.61ZM88.4-2.56L88.4-2.56Q90.28-2.56 91.92-3.44 93.57-4.32 95.48-5.96L95.48-5.96 95.48-13.18Q91.15-12.65 88.62-11.77 86.08-10.89 84.98-9.64 83.88-8.4 83.88-6.74L83.88-6.74Q83.88-4.52 85.2-3.54 86.52-2.56 88.4-2.56ZM131.14 0.61L131.14 0.61Q128.16 0.61 125.85-0.57 123.55-1.76 122.24-3.86 120.93-5.96 120.93-8.69L120.93-8.69Q120.93-11.18 122.05-13.07 123.16-14.97 124.91-16.46 126.67-17.94 128.64-19.23 130.6-20.51 132.36-21.78 134.12-23.05 135.23-24.49 136.34-25.93 136.34-27.76L136.34-27.76Q136.34-29.27 135.58-30.43 134.83-31.59 133.09-31.59L133.09-31.59Q131.14-31.59 129.98-30.15 128.82-28.71 128.82-26.59L128.82-26.59Q128.82-24.17 129.98-21.47 131.14-18.77 133.08-16.09 135.02-13.4 137.39-10.99 139.76-8.57 142.18-6.74L142.18-6.74Q146.23-3.74 149.6-2.66L149.6-2.66 148.52 0.61Q146.55 0.05 144.34-1.12 142.13-2.29 139.81-4.1L139.81-4.1Q137.07-6.27 134.48-9.02 131.9-11.77 129.85-14.78 127.8-17.8 126.59-20.8 125.38-23.8 125.38-26.49L125.38-26.49Q125.38-28.74 126.35-30.54 127.33-32.35 129.06-33.41 130.8-34.47 133.09-34.47L133.09-34.47Q136.14-34.47 137.87-32.59 139.59-30.71 139.59-27.81L139.59-27.81Q139.59-25.66 138.51-23.93 137.44-22.19 135.75-20.74 134.07-19.29 132.19-17.96 130.31-16.63 128.63-15.27 126.94-13.92 125.87-12.38 124.79-10.84 124.79-8.96L124.79-8.96Q124.79-6.05 126.77-4.28 128.75-2.51 131.6-2.51L131.6-2.51Q133.73-2.51 135.73-3.64 137.73-4.76 139.39-6.59L139.39-6.59Q141.49-8.84 142.99-11.76 144.49-14.67 145.47-18.19L145.47-18.19 149.18-18.19Q148.06-14.4 146.34-10.96 144.62-7.52 142.18-4.69L142.18-4.69Q140.05-2.32 137.35-0.85 134.66 0.61 131.14 0.61ZM184.36 0.61L184.36 0.61Q179.91 0.61 176.47-1.48 173.03-3.56 171.09-7.48 169.15-11.4 169.15-16.89L169.15-16.89Q169.15-22.34 171.15-26.27 173.15-30.2 176.64-32.34 180.13-34.47 184.63-34.47L184.63-34.47Q188.14-34.47 190.49-33.15 192.83-31.84 194.29-30.3L194.29-30.3 192.1-27.76Q190.83-29.13 189.05-30.02 187.26-30.91 184.72-30.91L184.72-30.91Q181.26-30.91 178.69-29.21 176.13-27.51 174.73-24.4 173.32-21.29 173.32-16.99L173.32-16.99Q173.32-10.5 176.28-6.71 179.23-2.93 184.72-2.93L184.72-2.93Q186.58-2.93 188.26-3.45 189.95-3.98 191-4.98L191-4.98 191-14.06 183.7-14.06 183.7-17.41 194.71-17.41 194.71-3.3Q193.1-1.59 190.41-0.49 187.73 0.61 184.36 0.61ZM209.75 0.61L209.75 0.61Q205.81 0.61 203.97-1.86 202.13-4.32 202.13-9.11L202.13-9.11 202.13-24.98 206.03-24.98 206.03-9.62Q206.03-6.08 207.19-4.46 208.35-2.83 210.94-2.83L210.94-2.83Q212.9-2.83 214.45-3.85 216-4.86 217.85-7.15L217.85-7.15 217.85-24.98 221.76-24.98 221.76 0 218.51 0 218.17-3.96 218-3.96Q216.26-1.9 214.29-0.65 212.31 0.61 209.75 0.61ZM234.33 0L230.37 0 230.37-24.98 233.67-24.98 234.04-20.46 234.13-20.46Q235.45-22.8 237.28-24.21 239.11-25.61 241.24-25.61L241.24-25.61Q242.85-25.61 243.87-25.1L243.87-25.1 243-21.73Q242.46-21.9 241.98-21.97 241.51-22.05 240.72-22.05L240.72-22.05Q239.14-22.05 237.38-20.74 235.62-19.43 234.33-16.16L234.33-16.16 234.33 0ZM252 0L248.05 0 248.05-24.98 252-24.98 252 0ZM250.1-30.25L250.1-30.25Q248.9-30.25 248.17-30.99 247.44-31.74 247.44-32.98L247.44-32.98Q247.44-34.13 248.17-34.86 248.9-35.6 250.1-35.6L250.1-35.6Q251.29-35.6 252.03-34.86 252.76-34.13 252.76-32.98L252.76-32.98Q252.76-31.74 252.03-30.99 251.29-30.25 250.1-30.25ZM267.11 0.61L267.11 0.61Q264.33 0.61 261.94-0.33 259.54-1.27 257.83-2.93L257.83-2.93 259.69-5.25Q261.28-3.93 263.07-3.2 264.87-2.47 267.26-2.47L267.26-2.47Q269.77-2.47 271.04-3.67 272.31-4.88 272.31-6.54L272.31-6.54Q272.31-7.86 271.48-8.73 270.65-9.59 269.35-10.21 268.04-10.82 266.6-11.33L266.6-11.33Q264.74-12.01 263.06-12.92 261.37-13.82 260.3-15.19 259.23-16.55 259.23-18.6L259.23-18.6Q259.23-21.53 261.45-23.57 263.67-25.61 267.72-25.61L267.72-25.61Q270.04-25.61 272.01-24.82 273.97-24.02 275.41-22.83L275.41-22.83 273.61-20.51Q272.29-21.46 270.88-21.98 269.48-22.51 267.77-22.51L267.77-22.51Q265.3-22.51 264.17-21.37 263.03-20.24 263.03-18.8L263.03-18.8Q263.03-17.02 264.55-16.11 266.06-15.21 268.33-14.36L268.33-14.36Q270.31-13.67 272.09-12.78 273.87-11.89 275-10.47 276.12-9.06 276.12-6.74L276.12-6.74Q276.12-3.71 273.8-1.55 271.48 0.61 267.11 0.61ZM286.05 0L282.1 0 282.1-36.74 286.05-36.74 286.05-26.64 285.91-21.44Q287.71-23.17 289.72-24.39 291.72-25.61 294.31-25.61L294.31-25.61Q298.21-25.61 300.04-23.13 301.87-20.65 301.87-15.87L301.87-15.87 301.87 0 297.97 0 297.97-15.36Q297.97-18.92 296.82-20.56 295.67-22.19 293.06-22.19L293.06-22.19Q291.13-22.19 289.57-21.17 288.01-20.14 286.05-18.19L286.05-18.19 286.05 0ZM315.79 0.61L315.79 0.61Q312.66 0.61 310.56-1.21 308.46-3.03 308.46-6.42L308.46-6.42Q308.46-10.52 312.19-12.72 315.91-14.92 323.94-15.82L323.94-15.82Q323.94-17.48 323.49-18.97 323.04-20.46 321.9-21.41 320.77-22.36 318.67-22.36L318.67-22.36Q316.45-22.36 314.51-21.51 312.57-20.65 311.1-19.73L311.1-19.73 309.56-22.36Q311.22-23.51 313.75-24.56 316.28-25.61 319.3-25.61L319.3-25.61Q323.87-25.61 325.88-22.8 327.9-20 327.9-15.41L327.9-15.41 327.9 0 324.6 0 324.28-3.03 324.14-3.03Q322.33-1.54 320.22-0.46 318.11 0.61 315.79 0.61ZM316.86-2.56L316.86-2.56Q318.74-2.56 320.39-3.44 322.04-4.32 323.94-5.96L323.94-5.96 323.94-13.18Q319.62-12.65 317.08-11.77 314.54-10.89 313.44-9.64 312.35-8.4 312.35-6.74L312.35-6.74Q312.35-4.52 313.66-3.54 314.98-2.56 316.86-2.56Z" opacity="1" transform="matrix(1,0,0,1,0,0)" fill="#000000" class="wordmark-text-0" data-fill-palette-color="quaternary" id="text-0"></path></svg></g></svg></g><g transform="matrix(1,0,0,1,0,30.2577836147563)"><svg viewBox="0 0 213.1584412271571 7.244062958928747" height="7.244062958928747" width="213.1584412271571"><g transform="matrix(1,0,0,1,0,0)"><svg width="213.1584412271571" viewBox="6.5 -35.7 1269.59 43.150000000000006" height="7.244062958928747" data-palette-color="#c103ff"><path d="M14.6 0L6.5 0 6.5-35 13.45-35Q18.85-35 21.85-32.75 24.85-30.5 24.85-26.5L24.85-26.5Q24.85-23.55 23.1-21.48 21.35-19.4 18.2-18.65L18.2-18.65 18.2-18.35Q22.5-17.8 24.93-15.38 27.35-12.95 27.35-9.25L27.35-9.25Q27.35-4.9 24-2.45 20.65 0 14.6 0L14.6 0ZM13.5-33.8L13.5-33.8 9.9-33.8 9.9-18.8 13.45-18.8Q21.35-18.8 21.35-26.3L21.35-26.3Q21.35-33.8 13.5-33.8ZM14.6-17.6L14.6-17.6 9.9-17.6 9.9-1.2 14.6-1.2Q23.75-1.2 23.75-9.4L23.75-9.4Q23.75-17.6 14.6-17.6ZM52.75 0L37.35 0 37.35-35 52.6-35 52.6-32.55 43.85-33.7Q41.55-34 40.75-34L40.75-34 40.75-18.75Q41.4-18.75 43.85-18.9L43.85-18.9 52.05-19.4 52.05-17.1 43.85-17.6Q41.4-17.75 40.75-17.75L40.75-17.75 40.75-1Q41.65-1 43.9-1.3L43.9-1.3 52.75-2.45 52.75 0ZM74.65 0L71.25 0 71.25-34Q70.5-34 68.15-33.7L68.15-33.7 58.35-32.45 58.35-35 87.55-35 87.55-32.45 77.75-33.7Q75.4-34 74.65-34L74.65-34 74.65 0ZM107.54 0L104.14 0 104.14-34Q103.39-34 101.04-33.7L101.04-33.7 91.24-32.45 91.24-35 120.44-35 120.44-32.45 110.64-33.7Q108.29-34 107.54-34L107.54-34 107.54 0ZM143.94 0L128.54 0 128.54-35 143.79-35 143.79-32.55 135.04-33.7Q132.74-34 131.94-34L131.94-34 131.94-18.75Q132.59-18.75 135.04-18.9L135.04-18.9 143.24-19.4 143.24-17.1 135.04-17.6Q132.59-17.75 131.94-17.75L131.94-17.75 131.94-1Q132.84-1 135.09-1.3L135.09-1.3 143.94-2.45 143.94 0ZM154.44 0L154.44-35 161.14-35Q166.44-35 169.36-32.77 172.29-30.55 172.29-26.55L172.29-26.55Q172.29-23.45 170.46-21.4 168.64-19.35 165.19-18.65L165.19-18.65 165.19-18.35Q168.49-17.7 170.59-15.25 172.69-12.8 173.74-9.2L173.74-9.2Q174.69-5.9 175.61-4.08 176.54-2.25 177.66-1.45 178.79-0.65 180.34-0.3L180.34-0.3 180.34 0 178.29 0Q176.09 0 174.66-0.8 173.24-1.6 172.24-3.5 171.24-5.4 170.34-8.75L170.34-8.75Q168.89-13.9 166.49-16.05 164.09-18.2 160.64-18.2L160.64-18.2 160.34-18.2 160.34-19.1 160.64-19.1Q168.69-19.1 168.69-26.5L168.69-26.5Q168.69-33.8 161.14-33.8L161.14-33.8 157.84-33.8 157.84 0 154.44 0ZM203.43 0L200.03 0 200.03-35 206.28-35Q212.33-35 215.68-32.43 219.03-29.85 219.03-25.25L219.03-25.25Q219.03-20.65 215.68-18.07 212.33-15.5 206.28-15.5L206.28-15.5 203.43-15.5 203.43 0ZM206.28-33.8L206.28-33.8 203.43-33.8 203.43-16.7 206.28-16.7Q215.43-16.7 215.43-25.25L215.43-25.25Q215.43-33.8 206.28-33.8ZM228.53 0L228.53-35 235.23-35Q240.53-35 243.46-32.77 246.38-30.55 246.38-26.55L246.38-26.55Q246.38-23.45 244.56-21.4 242.73-19.35 239.28-18.65L239.28-18.65 239.28-18.35Q242.58-17.7 244.68-15.25 246.78-12.8 247.83-9.2L247.83-9.2Q248.78-5.9 249.71-4.08 250.63-2.25 251.76-1.45 252.88-0.65 254.43-0.3L254.43-0.3 254.43 0 252.38 0Q250.18 0 248.76-0.8 247.33-1.6 246.33-3.5 245.33-5.4 244.43-8.75L244.43-8.75Q242.98-13.9 240.58-16.05 238.18-18.2 234.73-18.2L234.73-18.2 234.43-18.2 234.43-19.1 234.73-19.1Q242.78-19.1 242.78-26.5L242.78-26.5Q242.78-33.8 235.23-33.8L235.23-33.8 231.93-33.8 231.93 0 228.53 0ZM264.03 0L260.63 0 260.63-35 264.03-35 264.03 0ZM304.63-4.3L304.93-4.3 304.63-1.25Q303.23-0.65 301.23-0.2 299.23 0.25 297.18 0.48 295.13 0.7 293.53 0.7L293.53 0.7Q289.48 0.7 286.03-0.68 282.58-2.05 280-4.5 277.43-6.95 275.98-10.28 274.53-13.6 274.53-17.5L274.53-17.5Q274.53-21.4 275.98-24.73 277.43-28.05 280-30.5 282.58-32.95 286.03-34.33 289.48-35.7 293.53-35.7L293.53-35.7Q295.18-35.7 297.23-35.45 299.28-35.2 301.23-34.77 303.18-34.35 304.53-33.8L304.53-33.8 304.28-31 303.98-31Q302.13-32.7 299.33-33.6 296.53-34.5 293.53-34.5L293.53-34.5Q289.03-34.5 285.6-32.38 282.18-30.25 280.25-26.43 278.33-22.6 278.33-17.5L278.33-17.5Q278.33-12.35 280.25-8.55 282.18-4.75 285.58-2.63 288.98-0.5 293.53-0.5L293.53-0.5Q296.93-0.5 299.85-1.6 302.78-2.7 304.63-4.3L304.63-4.3ZM330.32 0L314.92 0 314.92-35 330.17-35 330.17-32.55 321.42-33.7Q319.12-34 318.32-34L318.32-34 318.32-18.75Q318.97-18.75 321.42-18.9L321.42-18.9 329.62-19.4 329.62-17.1 321.42-17.6Q318.97-17.75 318.32-17.75L318.32-17.75 318.32-1Q319.22-1 321.47-1.3L321.47-1.3 330.32-2.45 330.32 0ZM338.07-2.1L338.07-2.1Q338.07-3.25 338.82-3.98 339.57-4.7 340.77-4.7L340.77-4.7Q342.17-4.7 342.89-3.68 343.62-2.65 343.62-0.75L343.62-0.75Q343.62 1.7 342.39 3.83 341.17 5.95 338.97 7.45L338.97 7.45 338.47 6.7Q341.92 4.1 342.12-0.6L342.12-0.6Q341.52 0.35 340.37 0.35L340.37 0.35Q339.32 0.35 338.69-0.35 338.07-1.05 338.07-2.1ZM375.62 0L367.51 0 367.51-35 374.46-35Q379.87-35 382.87-32.75 385.87-30.5 385.87-26.5L385.87-26.5Q385.87-23.55 384.12-21.48 382.37-19.4 379.21-18.65L379.21-18.65 379.21-18.35Q383.51-17.8 385.94-15.38 388.37-12.95 388.37-9.25L388.37-9.25Q388.37-4.9 385.01-2.45 381.66 0 375.62 0L375.62 0ZM374.51-33.8L374.51-33.8 370.91-33.8 370.91-18.8 374.46-18.8Q382.37-18.8 382.37-26.3L382.37-26.3Q382.37-33.8 374.51-33.8ZM375.62-17.6L375.62-17.6 370.91-17.6 370.91-1.2 375.62-1.2Q384.76-1.2 384.76-9.4L384.76-9.4Q384.76-17.6 375.62-17.6ZM413.76 0L398.36 0 398.36-35 413.61-35 413.61-32.55 404.86-33.7Q402.56-34 401.76-34L401.76-34 401.76-18.75Q402.41-18.75 404.86-18.9L404.86-18.9 413.06-19.4 413.06-17.1 404.86-17.6Q402.41-17.75 401.76-17.75L401.76-17.75 401.76-1Q402.66-1 404.91-1.3L404.91-1.3 413.76-2.45 413.76 0ZM435.66 0L432.26 0 432.26-34Q431.51-34 429.16-33.7L429.16-33.7 419.36-32.45 419.36-35 448.56-35 448.56-32.45 438.76-33.7Q436.41-34 435.66-34L435.66-34 435.66 0ZM468.56 0L465.16 0 465.16-34Q464.41-34 462.06-33.7L462.06-33.7 452.26-32.45 452.26-35 481.46-35 481.46-32.45 471.66-33.7Q469.31-34 468.56-34L468.56-34 468.56 0ZM504.95 0L489.55 0 489.55-35 504.8-35 504.8-32.55 496.05-33.7Q493.75-34 492.95-34L492.95-34 492.95-18.75Q493.6-18.75 496.05-18.9L496.05-18.9 504.25-19.4 504.25-17.1 496.05-17.6Q493.6-17.75 492.95-17.75L492.95-17.75 492.95-1Q493.85-1 496.1-1.3L496.1-1.3 504.95-2.45 504.95 0ZM515.45 0L515.45-35 522.15-35Q527.45-35 530.38-32.77 533.3-30.55 533.3-26.55L533.3-26.55Q533.3-23.45 531.48-21.4 529.65-19.35 526.2-18.65L526.2-18.65 526.2-18.35Q529.5-17.7 531.6-15.25 533.7-12.8 534.75-9.2L534.75-9.2Q535.7-5.9 536.63-4.08 537.55-2.25 538.68-1.45 539.8-0.65 541.35-0.3L541.35-0.3 541.35 0 539.3 0Q537.1 0 535.68-0.8 534.25-1.6 533.25-3.5 532.25-5.4 531.35-8.75L531.35-8.75Q529.9-13.9 527.5-16.05 525.1-18.2 521.65-18.2L521.65-18.2 521.35-18.2 521.35-19.1 521.65-19.1Q529.7-19.1 529.7-26.5L529.7-26.5Q529.7-33.8 522.15-33.8L522.15-33.8 518.85-33.8 518.85 0 515.45 0ZM588.65-4.3L588.95-4.3 588.65-1.25Q587.25-0.65 585.25-0.2 583.25 0.25 581.2 0.48 579.15 0.7 577.55 0.7L577.55 0.7Q573.5 0.7 570.05-0.68 566.6-2.05 564.02-4.5 561.45-6.95 560-10.28 558.55-13.6 558.55-17.5L558.55-17.5Q558.55-21.4 560-24.73 561.45-28.05 564.02-30.5 566.6-32.95 570.05-34.33 573.5-35.7 577.55-35.7L577.55-35.7Q579.2-35.7 581.25-35.45 583.3-35.2 585.25-34.77 587.2-34.35 588.55-33.8L588.55-33.8 588.3-31 588-31Q586.15-32.7 583.35-33.6 580.55-34.5 577.55-34.5L577.55-34.5Q573.05-34.5 569.62-32.38 566.2-30.25 564.27-26.43 562.35-22.6 562.35-17.5L562.35-17.5Q562.35-12.35 564.27-8.55 566.2-4.75 569.6-2.63 573-0.5 577.55-0.5L577.55-0.5Q580.95-0.5 583.87-1.6 586.8-2.7 588.65-4.3L588.65-4.3ZM602.34 0L598.94 0 598.94-35 602.34-35 602.34-18.8 623.34-18.8 623.34-35 626.74-35 626.74 0 623.34 0 623.34-17.6 602.34-17.6 602.34 0ZM637.24-17.5L637.24-17.5Q637.24-21.35 638.62-24.68 639.99-28 642.47-30.48 644.94-32.95 648.27-34.33 651.59-35.7 655.44-35.7L655.44-35.7Q659.29-35.7 662.62-34.33 665.94-32.95 668.42-30.48 670.89-28 672.27-24.68 673.64-21.35 673.64-17.5L673.64-17.5Q673.64-13.65 672.27-10.33 670.89-7 668.42-4.53 665.94-2.05 662.62-0.68 659.29 0.7 655.44 0.7L655.44 0.7Q651.59 0.7 648.27-0.68 644.94-2.05 642.47-4.53 639.99-7 638.62-10.33 637.24-13.65 637.24-17.5ZM641.04-17.5L641.04-17.5Q641.04-12.4 642.84-8.58 644.64-4.75 647.89-2.63 651.14-0.5 655.44-0.5L655.44-0.5Q659.74-0.5 662.99-2.63 666.24-4.75 668.04-8.6 669.84-12.45 669.84-17.5L669.84-17.5Q669.84-22.55 668.04-26.38 666.24-30.2 662.99-32.35 659.74-34.5 655.44-34.5L655.44-34.5Q651.14-34.5 647.92-32.38 644.69-30.25 642.87-26.43 641.04-22.6 641.04-17.5ZM687.54 0L684.14 0 684.14-35 687.54-35 687.54 0ZM728.14-4.3L728.44-4.3 728.14-1.25Q726.74-0.65 724.74-0.2 722.74 0.25 720.69 0.48 718.64 0.7 717.04 0.7L717.04 0.7Q712.99 0.7 709.54-0.68 706.09-2.05 703.51-4.5 700.94-6.95 699.49-10.28 698.04-13.6 698.04-17.5L698.04-17.5Q698.04-21.4 699.49-24.73 700.94-28.05 703.51-30.5 706.09-32.95 709.54-34.33 712.99-35.7 717.04-35.7L717.04-35.7Q718.69-35.7 720.74-35.45 722.79-35.2 724.74-34.77 726.69-34.35 728.04-33.8L728.04-33.8 727.79-31 727.49-31Q725.64-32.7 722.84-33.6 720.04-34.5 717.04-34.5L717.04-34.5Q712.54-34.5 709.11-32.38 705.69-30.25 703.76-26.43 701.84-22.6 701.84-17.5L701.84-17.5Q701.84-12.35 703.76-8.55 705.69-4.75 709.09-2.63 712.49-0.5 717.04-0.5L717.04-0.5Q720.44-0.5 723.36-1.6 726.29-2.7 728.14-4.3L728.14-4.3ZM753.83 0L738.43 0 738.43-35 753.68-35 753.68-32.55 744.93-33.7Q742.63-34 741.83-34L741.83-34 741.83-18.75Q742.48-18.75 744.93-18.9L744.93-18.9 753.13-19.4 753.13-17.1 744.93-17.6Q742.48-17.75 741.83-17.75L741.83-17.75 741.83-1Q742.73-1 744.98-1.3L744.98-1.3 753.83-2.45 753.83 0ZM776.28 0L772.63 0 786.08-35 789.18-35 802.63 0 798.98 0 792.78-16.4 781.43-16.4 776.28 0ZM786.73-32.4L786.43-32.4 781.78-17.6 792.33-17.6 786.73-32.4ZM813.38 0L809.98 0 811.23-35.7 811.83-35.7 836.98-5.3 837.28-5.3 836.18-35 839.58-35 838.33 0.7 837.73 0.7 812.58-29.7 812.28-29.7 813.38 0ZM862.82 0L851.82 0 851.82-35 862.82-35Q868.62-35 872.92-32.8 877.22-30.6 879.62-26.68 882.02-22.75 882.02-17.5L882.02-17.5Q882.02-12.25 879.62-8.33 877.22-4.4 872.92-2.2 868.62 0 862.82 0L862.82 0ZM862.82-33.8L862.82-33.8 855.22-33.8 855.22-1.2 862.82-1.2Q870.07-1.2 874.15-5.5 878.22-9.8 878.22-17.5L878.22-17.5Q878.22-25.2 874.15-29.5 870.07-33.8 862.82-33.8ZM909.42 0L906.02 0 906.02-35 920.72-35 920.72-32.55 912.42-33.7Q910.17-34 909.42-34L909.42-34 909.42-18.35Q910.22-18.35 912.52-18.5L912.52-18.5 920.17-19 920.17-16.7 912.52-17.2Q910.22-17.35 909.42-17.35L909.42-17.35 909.42 0ZM926.17 0L922.52 0 935.97-35 939.07-35 952.52 0 948.87 0 942.67-16.4 931.32-16.4 926.17 0ZM936.62-32.4L936.32-32.4 931.67-17.6 942.22-17.6 936.62-32.4ZM957.56-1.1L957.56-1.1 957.86-4.1 958.16-4.1Q960.11-2.4 962.56-1.45 965.01-0.5 967.41-0.5L967.41-0.5Q970.81-0.5 972.91-2.38 975.01-4.25 975.01-7.4L975.01-7.4Q975.01-9.15 974.24-10.65 973.46-12.15 971.69-13.7 969.91-15.25 966.81-17.05L966.81-17.05Q964.66-18.3 962.71-19.68 960.76-21.05 959.51-22.88 958.26-24.7 958.26-27.25L958.26-27.25Q958.26-31.05 961.01-33.38 963.76-35.7 968.26-35.7L968.26-35.7Q970.26-35.7 972.56-35.27 974.86-34.85 976.11-34.2L976.11-34.2 975.86-31.4 975.56-31.4Q972.71-34.5 968.26-34.5L968.26-34.5Q965.06-34.5 963.11-32.88 961.16-31.25 961.16-28.5L961.16-28.5Q961.16-26.45 962.24-24.98 963.31-23.5 965.01-22.33 966.71-21.15 968.66-20.05L968.66-20.05Q970.91-18.75 973.04-17.3 975.16-15.85 976.54-13.83 977.91-11.8 977.91-8.75L977.91-8.75Q977.91-5.95 976.61-3.83 975.31-1.7 972.94-0.5 970.56 0.7 967.41 0.7L967.41 0.7Q965.41 0.7 962.71 0.2 960.01-0.3 957.56-1.1ZM998.16 0L994.76 0 994.76-34Q994.01-34 991.66-33.7L991.66-33.7 981.86-32.45 981.86-35 1011.06-35 1011.06-32.45 1001.26-33.7Q998.91-34 998.16-34L998.16-34 998.16 0ZM1043.66 0L1032.66 0 1032.66-35 1043.66-35Q1049.46-35 1053.76-32.8 1058.06-30.6 1060.46-26.68 1062.86-22.75 1062.86-17.5L1062.86-17.5Q1062.86-12.25 1060.46-8.33 1058.06-4.4 1053.76-2.2 1049.46 0 1043.66 0L1043.66 0ZM1043.66-33.8L1043.66-33.8 1036.06-33.8 1036.06-1.2 1043.66-1.2Q1050.91-1.2 1054.98-5.5 1059.06-9.8 1059.06-17.5L1059.06-17.5Q1059.06-25.2 1054.98-29.5 1050.91-33.8 1043.66-33.8ZM1088.75 0L1073.35 0 1073.35-35 1088.6-35 1088.6-32.55 1079.85-33.7Q1077.55-34 1076.75-34L1076.75-34 1076.75-18.75Q1077.4-18.75 1079.85-18.9L1079.85-18.9 1088.05-19.4 1088.05-17.1 1079.85-17.6Q1077.4-17.75 1076.75-17.75L1076.75-17.75 1076.75-1Q1077.65-1 1079.9-1.3L1079.9-1.3 1088.75-2.45 1088.75 0ZM1099.25 0L1099.25-35 1102.65-35 1102.65-1Q1103.6-1 1105.65-1.3L1105.65-1.3 1113.95-2.55 1113.95 0 1099.25 0ZM1125.7 0L1122.3 0 1122.3-35 1125.7-35 1125.7 0ZM1149.7 0.7L1133.8-35 1137.55-35 1151.2-3.9 1151.5-3.9 1162.95-35 1166.7-35 1150.8 0.7 1149.7 0.7ZM1189.89 0L1174.49 0 1174.49-35 1189.74-35 1189.74-32.55 1180.99-33.7Q1178.69-34 1177.89-34L1177.89-34 1177.89-18.75Q1178.54-18.75 1180.99-18.9L1180.99-18.9 1189.19-19.4 1189.19-17.1 1180.99-17.6Q1178.54-17.75 1177.89-17.75L1177.89-17.75 1177.89-1Q1178.79-1 1181.04-1.3L1181.04-1.3 1189.89-2.45 1189.89 0ZM1200.39 0L1200.39-35 1207.09-35Q1212.39-35 1215.32-32.77 1218.24-30.55 1218.24-26.55L1218.24-26.55Q1218.24-23.45 1216.42-21.4 1214.59-19.35 1211.14-18.65L1211.14-18.65 1211.14-18.35Q1214.44-17.7 1216.54-15.25 1218.64-12.8 1219.69-9.2L1219.69-9.2Q1220.64-5.9 1221.57-4.08 1222.49-2.25 1223.62-1.45 1224.74-0.65 1226.29-0.3L1226.29-0.3 1226.29 0 1224.24 0Q1222.04 0 1220.62-0.8 1219.19-1.6 1218.19-3.5 1217.19-5.4 1216.29-8.75L1216.29-8.75Q1214.84-13.9 1212.44-16.05 1210.04-18.2 1206.59-18.2L1206.59-18.2 1206.29-18.2 1206.29-19.1 1206.59-19.1Q1214.64-19.1 1214.64-26.5L1214.64-26.5Q1214.64-33.8 1207.09-33.8L1207.09-33.8 1203.79-33.8 1203.79 0 1200.39 0ZM1232.49 0L1232.49-35 1235.89-35 1235.89-1Q1236.84-1 1238.89-1.3L1238.89-1.3 1247.19-2.55 1247.19 0 1232.49 0ZM1264.14 0L1260.54 0 1260.54-14.8 1248.14-35 1251.94-35 1263.09-16.7 1263.39-16.7 1272.29-35 1276.09-35 1264.14-15.5 1264.14 0Z" opacity="1" transform="matrix(1,0,0,1,0,0)" fill="#000000" class="slogan-text-1" data-fill-palette-color="quaternary" id="text-1"></path></svg></g></svg></g></svg></g></svg></g><g transform="matrix(1,0,0,1,80.66544463116219,0)"><svg viewBox="0 0 51.827551964832736 51.827551964832736" height="51.827551964832736" width="51.827551964832736"><g><svg xmlns="http://www.w3.org/2000/svg" xmlns:xlink="http://www.w3.org/1999/xlink" version="1.1" x="0" y="0" viewBox="1 1 62 62" style="enable-background:new 0 0 64 64;" xml:space="preserve" height="51.827551964832736" width="51.827551964832736" class="icon-icon-0" data-fill-palette-color="quaternary" id="icon-0"><g fill="#c103ff" data-fill-palette-color="quaternary"><path d="M11 33v-6H5v6H11zM7 29h2v2H7V29z" fill="#000000" data-fill-palette-color="quaternary"></path><path d="M57 12.745V6h-2v6.745l-5 9.167-5-9.167V8h-2V1h-2v7H23V1h-2v7h-2v4.745l-5 9.167-5-9.167V6H7v6.745l-6 11V63h62V23.745L57 12.745zM57 56h-2v-5c0-0.551 0.448-1 1-1s1 0.449 1 1V56zM56 48c-1.654 0-3 1.346-3 3v5h-2V41h10v15h-2v-5C59 49.346 57.654 48 56 48zM35 56h-6v-4c0-1.654 1.346-3 3-3s3 1.346 3 3V56zM32 47c-2.757 0-5 2.243-5 5v4h-2V45h14v11h-2v-4C37 49.243 34.757 47 32 47zM9 56H7v-5c0-0.551 0.448-1 1-1s1 0.449 1 1V56zM8 48c-1.654 0-3 1.346-3 3v5H3V41h10v15h-2v-5C11 49.346 9.654 48 8 48zM55 39v-2h2v2H55zM53 39h-2v-2h2V39zM39 43h-2v-2h2V43zM9 37v2H7v-2H9zM11 37h2v2h-2V37zM24.319 25l-2.4 3H24v7h-9V25H24.319zM38 28v11h-2v-6c0-2.206-1.794-4-4-4s-4 1.794-4 4v6h-2V28H38zM26.081 26L32 18.601 37.919 26H26.081zM40 37h1v2h-1V37zM30 39v-6c0-1.103 0.897-2 2-2s2 0.897 2 2v6H30zM24 37v2h-1v-2H24zM15 37h2v2h-2V37zM19 37h2v2h-2V37zM25 41h2v2h-2V41zM29 41h2v2h-2V41zM33 41h2v2h-2V41zM43 37h2v2h-2V37zM47 37h2v2h-2V37zM40 35v-7h2.081l-2.4-3H49v10H40zM38.081 23L32 15.399 25.919 23H15.685l4.909-9h22.812l4.909 9H38.081zM13 25v10H3V25H13zM3.685 23L8 15.088 12.315 23H3.685zM5 37v2H3v-2H5zM15 41h8v7.184C22.686 48.072 22.352 48 22 48c-1.654 0-3 1.346-3 3v5h-4V41zM21 51c0-0.551 0.448-1 1-1s1 0.449 1 1v5h-2V51zM41 51c0-0.551 0.448-1 1-1s1 0.449 1 1v5h-2V51zM42 48c-0.352 0-0.686 0.072-1 0.184V41h8v15h-4v-5C45 49.346 43.654 48 42 48zM59 39v-2h2v2H59zM51 35V25h10v10H51zM51.685 23L56 15.088 60.315 23H51.685zM21 10h22v2H21V10zM3 61v-3h58v3H3z" fill="#000000" data-fill-palette-color="quaternary"></path><path d="M53 27v6h6v-6H53zM57 31h-2v-2h2V31z" fill="#000000" data-fill-palette-color="quaternary"></path><rect x="55" y="44" width="2" height="2" fill="#000000" data-fill-palette-color="quaternary"></rect><rect x="7" y="44" width="2" height="2" fill="#000000" data-fill-palette-color="quaternary"></rect></g></svg></g></svg></g><g></g></svg></g></svg></g></svg></g></svg></g><defs></defs></svg><rect width="342.85155851775386" height="342.85155851775386" fill="none" stroke="none" visibility="hidden"></rect></g></svg></g></svg>